<svg width="1000" height="1024" viewBox="0 0 1000 1024" fill="none" xmlns="http://www.w3.org/2000/svg">
<g clip-path="url(#clip0)">
<rect width="1000" height="1024" fill="#1890FF"/>
<path opacity="0.2" fill-rule="evenodd" clip-rule="evenodd" d="M367.618 132.746C479.65 104.859 600.597 59.3338 704.648 109.436C813.977 162.079 885.1 278.32 914.755 396.199C943.37 509.945 920.219 633.591 862.131 735.428C810.296 826.303 705.799 863.332 616.935 918.326C536.126 968.334 461.613 1027.85 367.618 1041.46C262.544 1056.68 143.454 1064.55 59.8153 999.009C-23.2017 933.957 -29.7837 814.43 -53.4499 711.51C-74.9174 618.151 -106.73 520.372 -70.6459 431.655C-35.555 345.381 56.7718 303.989 133.622 251.575C207.725 201.035 280.628 154.4 367.618 132.746Z" stroke="#40A9FF" stroke-width="4"/>
<path opacity="0.2" fill-rule="evenodd" clip-rule="evenodd" d="M381.256 246.8C464.12 226.196 553.578 192.559 630.539 229.577C711.403 268.473 764.009 354.358 785.943 441.455C807.108 525.497 789.985 616.854 747.02 692.098C708.681 759.241 631.39 786.601 565.662 827.233C505.892 864.183 450.779 908.154 381.256 918.212C303.538 929.455 215.454 935.272 153.591 886.847C92.1881 838.783 87.3198 750.469 69.8152 674.425C53.9368 605.446 30.4065 533.202 57.0962 467.652C83.051 403.907 151.34 373.325 208.182 334.598C262.992 297.256 316.914 262.799 381.256 246.8Z" stroke="#40A9FF" stroke-width="4"/>
<path opacity="0.2" fill-rule="evenodd" clip-rule="evenodd" d="M389.831 317.405C454.355 301.308 524.013 275.031 583.939 303.95C646.906 334.336 687.868 401.43 704.948 469.47C721.428 535.125 708.095 606.493 674.64 665.274C644.786 717.727 584.602 739.1 533.422 770.843C486.881 799.708 443.967 834.059 389.831 841.916C329.315 850.699 260.727 855.243 212.556 817.414C164.744 779.865 160.953 710.874 147.323 651.468C134.959 597.582 116.637 541.143 137.419 489.936C157.629 440.138 210.804 416.247 255.064 385.993C297.743 356.821 339.731 329.903 389.831 317.405Z" stroke="#40A9FF" stroke-width="4"/>
<path opacity="0.2" fill-rule="evenodd" clip-rule="evenodd" d="M396.03 369.001C447.296 356.199 502.64 335.299 550.253 358.299C600.281 382.466 632.827 435.829 646.397 489.943C659.491 542.16 648.897 598.922 622.316 645.672C598.597 687.39 550.78 704.389 510.116 729.634C473.139 752.592 439.042 779.912 396.03 786.161C347.949 793.147 293.454 796.761 255.182 766.674C217.194 736.81 214.182 681.94 203.352 634.692C193.529 591.834 178.972 546.947 195.484 506.22C211.541 466.614 253.789 447.613 288.955 423.551C322.864 400.35 356.224 378.941 396.03 369.001Z" stroke="#40A9FF" stroke-width="4"/>
<path d="M309.136 543.24C306.992 543.24 305.36 542.664 304.24 541.512C303.136 540.36 302.544 538.768 302.464 536.736C302.448 536.304 302.44 535.6 302.44 534.624C302.44 533.632 302.448 532.912 302.464 532.464C302.544 530.448 303.144 528.864 304.264 527.712C305.384 526.544 307.008 525.96 309.136 525.96C310.56 525.96 311.768 526.216 312.76 526.728C313.752 527.224 314.504 527.88 315.016 528.696C315.528 529.512 315.808 530.384 315.856 531.312V531.36C315.856 531.488 315.8 531.6 315.688 531.696C315.592 531.776 315.48 531.816 315.352 531.816H314.032C313.712 531.816 313.512 531.632 313.432 531.264C313.16 530.064 312.672 529.224 311.968 528.744C311.264 528.248 310.32 528 309.136 528C306.384 528 304.96 529.528 304.864 532.584C304.848 533.016 304.84 533.68 304.84 534.576C304.84 535.472 304.848 536.152 304.864 536.616C304.96 539.672 306.384 541.2 309.136 541.2C310.32 541.2 311.264 540.96 311.968 540.48C312.688 539.984 313.176 539.136 313.432 537.936C313.48 537.728 313.552 537.584 313.648 537.504C313.744 537.424 313.872 537.384 314.032 537.384H315.352C315.496 537.384 315.616 537.432 315.712 537.528C315.824 537.608 315.872 537.72 315.856 537.864C315.808 538.808 315.528 539.688 315.016 540.504C314.504 541.32 313.752 541.984 312.76 542.496C311.768 542.992 310.56 543.24 309.136 543.24ZM319.336 543C319.176 543 319.04 542.952 318.928 542.856C318.832 542.744 318.784 542.608 318.784 542.448V526.512C318.784 526.352 318.832 526.224 318.928 526.128C319.04 526.016 319.176 525.96 319.336 525.96H320.536C320.696 525.96 320.824 526.016 320.92 526.128C321.032 526.224 321.088 526.352 321.088 526.512V532.104C321.552 531.512 322.096 531.064 322.72 530.76C323.344 530.44 324.12 530.28 325.048 530.28C326.584 530.28 327.776 530.776 328.624 531.768C329.488 532.744 329.92 534.048 329.92 535.68V542.448C329.92 542.608 329.864 542.744 329.752 542.856C329.656 542.952 329.528 543 329.368 543H328.168C328.008 543 327.872 542.952 327.76 542.856C327.664 542.744 327.616 542.608 327.616 542.448V535.8C327.616 534.664 327.336 533.784 326.776 533.16C326.232 532.536 325.44 532.224 324.4 532.224C323.392 532.224 322.584 532.544 321.976 533.184C321.384 533.808 321.088 534.68 321.088 535.8V542.448C321.088 542.608 321.032 542.744 320.92 542.856C320.824 542.952 320.696 543 320.536 543H319.336ZM338.497 543.24C336.737 543.24 335.369 542.744 334.393 541.752C333.433 540.76 332.921 539.44 332.857 537.792L332.833 536.76L332.857 535.728C332.921 534.096 333.441 532.784 334.417 531.792C335.393 530.784 336.753 530.28 338.497 530.28C340.241 530.28 341.601 530.784 342.577 531.792C343.553 532.784 344.073 534.096 344.137 535.728C344.153 535.904 344.161 536.248 344.161 536.76C344.161 537.272 344.153 537.616 344.137 537.792C344.073 539.44 343.553 540.76 342.577 541.752C341.617 542.744 340.257 543.24 338.497 543.24ZM338.497 541.392C339.505 541.392 340.297 541.072 340.873 540.432C341.465 539.792 341.785 538.872 341.833 537.672C341.849 537.512 341.857 537.208 341.857 536.76C341.857 536.312 341.849 536.008 341.833 535.848C341.785 534.648 341.465 533.728 340.873 533.088C340.297 532.448 339.505 532.128 338.497 532.128C337.489 532.128 336.689 532.448 336.097 533.088C335.505 533.728 335.193 534.648 335.161 535.848L335.137 536.76L335.161 537.672C335.193 538.872 335.505 539.792 336.097 540.432C336.689 541.072 337.489 541.392 338.497 541.392ZM352.279 543.24C350.519 543.24 349.151 542.744 348.175 541.752C347.215 540.76 346.703 539.44 346.639 537.792L346.615 536.76L346.639 535.728C346.703 534.096 347.223 532.784 348.199 531.792C349.175 530.784 350.535 530.28 352.279 530.28C354.023 530.28 355.383 530.784 356.359 531.792C357.335 532.784 357.855 534.096 357.919 535.728C357.935 535.904 357.943 536.248 357.943 536.76C357.943 537.272 357.935 537.616 357.919 537.792C357.855 539.44 357.335 540.76 356.359 541.752C355.399 542.744 354.039 543.24 352.279 543.24ZM352.279 541.392C353.287 541.392 354.079 541.072 354.655 540.432C355.247 539.792 355.567 538.872 355.615 537.672C355.631 537.512 355.639 537.208 355.639 536.76C355.639 536.312 355.631 536.008 355.615 535.848C355.567 534.648 355.247 533.728 354.655 533.088C354.079 532.448 353.287 532.128 352.279 532.128C351.271 532.128 350.471 532.448 349.879 533.088C349.287 533.728 348.975 534.648 348.943 535.848L348.919 536.76L348.943 537.672C348.975 538.872 349.287 539.792 349.879 540.432C350.471 541.072 351.271 541.392 352.279 541.392ZM365.268 543.24C364.148 543.24 363.204 543.064 362.436 542.712C361.684 542.344 361.116 541.928 360.732 541.464C360.364 541 360.18 540.616 360.18 540.312C360.18 540.152 360.236 540.032 360.348 539.952C360.476 539.856 360.604 539.808 360.732 539.808H361.812C361.972 539.808 362.116 539.888 362.244 540.048C362.628 540.496 363.044 540.848 363.492 541.104C363.94 541.36 364.54 541.488 365.292 541.488C366.124 541.488 366.796 541.328 367.308 541.008C367.836 540.672 368.1 540.216 368.1 539.64C368.1 539.256 367.988 538.944 367.764 538.704C367.556 538.448 367.188 538.232 366.66 538.056C366.148 537.864 365.38 537.656 364.356 537.432C362.964 537.128 361.972 536.688 361.38 536.112C360.804 535.536 360.516 534.792 360.516 533.88C360.516 533.272 360.692 532.696 361.044 532.152C361.412 531.592 361.94 531.144 362.628 530.808C363.332 530.456 364.172 530.28 365.148 530.28C366.172 530.28 367.044 530.448 367.764 530.784C368.484 531.12 369.02 531.52 369.372 531.984C369.74 532.432 369.924 532.808 369.924 533.112C369.924 533.256 369.868 533.376 369.756 533.472C369.66 533.568 369.54 533.616 369.396 533.616H368.388C368.196 533.616 368.036 533.536 367.908 533.376C367.652 533.072 367.428 532.84 367.236 532.68C367.06 532.504 366.796 532.352 366.444 532.224C366.108 532.096 365.676 532.032 365.148 532.032C364.38 532.032 363.788 532.2 363.372 532.536C362.956 532.856 362.748 533.28 362.748 533.808C362.748 534.144 362.836 534.432 363.012 534.672C363.188 534.896 363.524 535.104 364.02 535.296C364.532 535.488 365.268 535.688 366.228 535.896C367.748 536.216 368.82 536.68 369.444 537.288C370.084 537.88 370.404 538.64 370.404 539.568C370.404 540.256 370.204 540.88 369.804 541.44C369.404 542 368.812 542.44 368.028 542.76C367.26 543.08 366.34 543.24 365.268 543.24ZM378.174 543.24C376.526 543.24 375.206 542.736 374.214 541.728C373.238 540.704 372.702 539.312 372.606 537.552L372.582 536.736L372.606 535.944C372.718 534.216 373.262 532.84 374.238 531.816C375.23 530.792 376.534 530.28 378.15 530.28C379.926 530.28 381.302 530.848 382.278 531.984C383.254 533.104 383.742 534.624 383.742 536.544V536.952C383.742 537.112 383.686 537.248 383.574 537.36C383.478 537.456 383.35 537.504 383.19 537.504H374.886V537.72C374.934 538.76 375.246 539.648 375.822 540.384C376.414 541.104 377.19 541.464 378.15 541.464C378.886 541.464 379.486 541.32 379.95 541.032C380.43 540.728 380.782 540.416 381.006 540.096C381.15 539.904 381.254 539.792 381.318 539.76C381.398 539.712 381.534 539.688 381.726 539.688H382.902C383.046 539.688 383.166 539.728 383.262 539.808C383.358 539.888 383.406 540 383.406 540.144C383.406 540.496 383.182 540.92 382.734 541.416C382.302 541.912 381.686 542.344 380.886 542.712C380.102 543.064 379.198 543.24 378.174 543.24ZM381.462 535.848V535.776C381.462 534.672 381.158 533.776 380.55 533.088C379.958 532.384 379.158 532.032 378.15 532.032C377.142 532.032 376.342 532.384 375.75 533.088C375.174 533.776 374.886 534.672 374.886 535.776V535.848H381.462ZM394.023 547.56C393.895 547.56 393.783 547.512 393.687 547.416C393.591 547.32 393.543 547.208 393.543 547.08C393.543 546.968 393.583 546.824 393.663 546.648L395.511 542.256L390.927 531.432C390.847 531.224 390.807 531.088 390.807 531.024C390.807 530.88 390.855 530.76 390.951 530.664C391.047 530.568 391.167 530.52 391.311 530.52H392.487C392.743 530.52 392.935 530.656 393.062 530.928L396.711 539.664L400.455 530.928C400.583 530.656 400.783 530.52 401.055 530.52H402.182C402.326 530.52 402.447 530.568 402.543 530.664C402.639 530.76 402.687 530.872 402.687 531C402.687 531.048 402.647 531.192 402.567 531.432L395.751 547.152C395.623 547.424 395.423 547.56 395.151 547.56H394.023ZM409.771 543.24C408.011 543.24 406.643 542.744 405.667 541.752C404.707 540.76 404.195 539.44 404.131 537.792L404.107 536.76L404.131 535.728C404.195 534.096 404.715 532.784 405.691 531.792C406.667 530.784 408.027 530.28 409.771 530.28C411.515 530.28 412.875 530.784 413.851 531.792C414.827 532.784 415.347 534.096 415.411 535.728C415.427 535.904 415.435 536.248 415.435 536.76C415.435 537.272 415.427 537.616 415.411 537.792C415.347 539.44 414.827 540.76 413.851 541.752C412.891 542.744 411.531 543.24 409.771 543.24ZM409.771 541.392C410.779 541.392 411.571 541.072 412.147 540.432C412.739 539.792 413.059 538.872 413.107 537.672C413.123 537.512 413.131 537.208 413.131 536.76C413.131 536.312 413.123 536.008 413.107 535.848C413.059 534.648 412.739 533.728 412.147 533.088C411.571 532.448 410.779 532.128 409.771 532.128C408.763 532.128 407.963 532.448 407.371 533.088C406.779 533.728 406.467 534.648 406.435 535.848L406.411 536.76L406.435 537.672C406.467 538.872 406.779 539.792 407.371 540.432C407.963 541.072 408.763 541.392 409.771 541.392ZM423.096 543.24C421.576 543.24 420.4 542.752 419.568 541.776C418.736 540.784 418.32 539.472 418.32 537.84V531.072C418.32 530.912 418.368 530.784 418.464 530.688C418.576 530.576 418.712 530.52 418.872 530.52H420.072C420.232 530.52 420.36 530.576 420.456 530.688C420.568 530.784 420.624 530.912 420.624 531.072V537.72C420.624 540.104 421.664 541.296 423.744 541.296C424.752 541.296 425.552 540.984 426.144 540.36C426.736 539.72 427.032 538.84 427.032 537.72V531.072C427.032 530.912 427.08 530.784 427.176 530.688C427.288 530.576 427.424 530.52 427.584 530.52H428.784C428.944 530.52 429.072 530.576 429.168 530.688C429.264 530.784 429.312 530.912 429.312 531.072V542.448C429.312 542.608 429.264 542.744 429.168 542.856C429.072 542.952 428.944 543 428.784 543H427.656C427.496 543 427.36 542.952 427.248 542.856C427.152 542.744 427.104 542.608 427.104 542.448V541.392C426.656 542 426.112 542.464 425.472 542.784C424.832 543.088 424.04 543.24 423.096 543.24ZM433.43 543C433.27 543 433.134 542.952 433.022 542.856C432.926 542.744 432.878 542.608 432.878 542.448V531.096C432.878 530.936 432.926 530.8 433.022 530.688C433.134 530.576 433.27 530.52 433.43 530.52H434.534C434.694 530.52 434.83 530.576 434.942 530.688C435.054 530.8 435.11 530.936 435.11 531.096V532.152C435.766 531.064 436.886 530.52 438.47 530.52H439.406C439.566 530.52 439.694 530.576 439.79 530.688C439.902 530.784 439.958 530.912 439.958 531.072V532.056C439.958 532.216 439.902 532.344 439.79 532.44C439.694 532.536 439.566 532.584 439.406 532.584H437.966C437.102 532.584 436.422 532.84 435.926 533.352C435.43 533.848 435.182 534.528 435.182 535.392V542.448C435.182 542.608 435.126 542.744 435.014 542.856C434.902 542.952 434.766 543 434.606 543H433.43ZM451.875 543.24C450.211 543.24 448.955 542.696 448.107 541.608C447.259 540.52 446.811 539.144 446.763 537.48L446.739 536.76L446.763 536.04C446.811 534.392 447.259 533.024 448.107 531.936C448.955 530.832 450.211 530.28 451.875 530.28C453.523 530.28 454.819 530.864 455.763 532.032V526.512C455.763 526.352 455.811 526.224 455.907 526.128C456.019 526.016 456.155 525.96 456.315 525.96H457.467C457.627 525.96 457.755 526.016 457.851 526.128C457.963 526.224 458.019 526.352 458.019 526.512V542.448C458.019 542.608 457.963 542.744 457.851 542.856C457.755 542.952 457.627 543 457.467 543H456.387C456.227 543 456.091 542.952 455.979 542.856C455.883 542.744 455.835 542.608 455.835 542.448V541.44C454.907 542.64 453.587 543.24 451.875 543.24ZM452.379 541.296C453.483 541.296 454.307 540.936 454.851 540.216C455.411 539.48 455.715 538.608 455.763 537.6C455.779 537.424 455.787 537.12 455.787 536.688C455.787 536.24 455.779 535.928 455.763 535.752C455.731 534.808 455.427 533.984 454.851 533.28C454.275 532.576 453.451 532.224 452.379 532.224C451.243 532.224 450.411 532.576 449.883 533.28C449.371 533.984 449.091 534.912 449.043 536.064L449.019 536.76C449.019 539.784 450.139 541.296 452.379 541.296ZM461.949 528.192C461.789 528.192 461.653 528.144 461.541 528.048C461.445 527.936 461.396 527.8 461.396 527.64V526.344C461.396 526.184 461.445 526.048 461.541 525.936C461.653 525.824 461.789 525.768 461.949 525.768H463.461C463.621 525.768 463.757 525.824 463.869 525.936C463.981 526.048 464.037 526.184 464.037 526.344V527.64C464.037 527.8 463.981 527.936 463.869 528.048C463.757 528.144 463.621 528.192 463.461 528.192H461.949ZM462.141 543C461.981 543 461.845 542.952 461.733 542.856C461.637 542.744 461.589 542.608 461.589 542.448V531.072C461.589 530.912 461.637 530.784 461.733 530.688C461.845 530.576 461.981 530.52 462.141 530.52H463.293C463.453 530.52 463.581 530.576 463.677 530.688C463.789 530.784 463.845 530.912 463.845 531.072V542.448C463.845 542.608 463.789 542.744 463.677 542.856C463.581 542.952 463.453 543 463.293 543H462.141ZM469.201 543C469.041 543 468.905 542.952 468.793 542.856C468.697 542.744 468.649 542.608 468.649 542.448V532.44H466.609C466.449 532.44 466.313 532.392 466.201 532.296C466.105 532.184 466.057 532.048 466.057 531.888V531.072C466.057 530.912 466.105 530.784 466.201 530.688C466.313 530.576 466.449 530.52 466.609 530.52H468.649V529.32C468.649 526.6 470.025 525.24 472.777 525.24H474.217C474.377 525.24 474.505 525.296 474.601 525.408C474.713 525.504 474.769 525.632 474.769 525.792V526.608C474.769 526.768 474.713 526.904 474.601 527.016C474.505 527.112 474.377 527.16 474.217 527.16H472.825C472.105 527.16 471.601 527.352 471.313 527.736C471.025 528.104 470.881 528.672 470.881 529.44V530.52H476.017V529.32C476.017 528.008 476.337 527 476.977 526.296C477.633 525.592 478.681 525.24 480.121 525.24H483.841C484.001 525.24 484.129 525.296 484.225 525.408C484.337 525.504 484.393 525.632 484.393 525.792V526.608C484.393 526.768 484.337 526.904 484.225 527.016C484.129 527.112 484.001 527.16 483.841 527.16H480.193C479.457 527.16 478.945 527.352 478.657 527.736C478.369 528.104 478.225 528.672 478.225 529.44V530.52H483.841C484.001 530.52 484.129 530.576 484.225 530.688C484.337 530.784 484.393 530.912 484.393 531.072V542.448C484.393 542.608 484.337 542.744 484.225 542.856C484.129 542.952 484.001 543 483.841 543H482.713C482.553 543 482.417 542.952 482.305 542.856C482.209 542.744 482.161 542.608 482.161 542.448V532.44H478.225V542.448C478.225 542.608 478.169 542.744 478.057 542.856C477.961 542.952 477.833 543 477.673 543H476.569C476.409 543 476.273 542.952 476.161 542.856C476.065 542.744 476.017 542.608 476.017 542.448V532.44H470.881V542.448C470.881 542.608 470.825 542.744 470.713 542.856C470.617 542.952 470.489 543 470.329 543H469.201ZM492.996 543.24C491.284 543.24 489.94 542.76 488.964 541.8C488.004 540.824 487.492 539.464 487.428 537.72L487.404 536.76L487.428 535.8C487.492 534.056 488.004 532.704 488.964 531.744C489.94 530.768 491.284 530.28 492.996 530.28C494.148 530.28 495.124 530.488 495.924 530.904C496.724 531.32 497.316 531.832 497.7 532.44C498.1 533.048 498.316 533.656 498.348 534.264C498.364 534.424 498.316 534.552 498.204 534.648C498.092 534.744 497.956 534.792 497.796 534.792H496.644C496.484 534.792 496.364 534.76 496.284 534.696C496.204 534.632 496.124 534.504 496.044 534.312C495.772 533.544 495.388 533 494.892 532.68C494.396 532.344 493.772 532.176 493.02 532.176C492.028 532.176 491.236 532.488 490.644 533.112C490.068 533.72 489.756 534.656 489.708 535.92L489.684 536.784L489.708 537.6C489.756 538.88 490.068 539.824 490.644 540.432C491.22 541.04 492.012 541.344 493.02 541.344C493.772 541.344 494.396 541.184 494.892 540.864C495.388 540.528 495.772 539.976 496.044 539.208C496.124 539.016 496.204 538.888 496.284 538.824C496.364 538.744 496.484 538.704 496.644 538.704H497.796C497.956 538.704 498.092 538.76 498.204 538.872C498.316 538.968 498.364 539.096 498.348 539.256C498.316 539.848 498.1 540.456 497.7 541.08C497.316 541.688 496.724 542.2 495.924 542.616C495.14 543.032 494.164 543.24 492.996 543.24ZM505.854 543.24C504.334 543.24 503.158 542.752 502.326 541.776C501.494 540.784 501.078 539.472 501.078 537.84V531.072C501.078 530.912 501.126 530.784 501.222 530.688C501.334 530.576 501.47 530.52 501.63 530.52H502.83C502.99 530.52 503.118 530.576 503.214 530.688C503.326 530.784 503.382 530.912 503.382 531.072V537.72C503.382 540.104 504.422 541.296 506.502 541.296C507.51 541.296 508.31 540.984 508.902 540.36C509.494 539.72 509.79 538.84 509.79 537.72V531.072C509.79 530.912 509.838 530.784 509.934 530.688C510.046 530.576 510.182 530.52 510.342 530.52H511.542C511.702 530.52 511.83 530.576 511.926 530.688C512.022 530.784 512.07 530.912 512.07 531.072V542.448C512.07 542.608 512.022 542.744 511.926 542.856C511.83 542.952 511.702 543 511.542 543H510.414C510.254 543 510.118 542.952 510.006 542.856C509.91 542.744 509.862 542.608 509.862 542.448V541.392C509.414 542 508.87 542.464 508.23 542.784C507.59 543.088 506.798 543.24 505.854 543.24ZM516.211 543C516.051 543 515.915 542.952 515.803 542.856C515.707 542.744 515.659 542.608 515.659 542.448V526.512C515.659 526.352 515.707 526.224 515.803 526.128C515.915 526.016 516.051 525.96 516.211 525.96H517.339C517.499 525.96 517.627 526.016 517.723 526.128C517.835 526.224 517.891 526.352 517.891 526.512V542.448C517.891 542.608 517.835 542.744 517.723 542.856C517.627 542.952 517.499 543 517.339 543H516.211ZM526.343 543C523.815 543 522.551 541.592 522.551 538.776V532.44H520.679C520.519 532.44 520.383 532.392 520.271 532.296C520.175 532.184 520.127 532.048 520.127 531.888V531.072C520.127 530.912 520.175 530.784 520.271 530.688C520.383 530.576 520.519 530.52 520.679 530.52H522.551V526.512C522.551 526.352 522.599 526.224 522.695 526.128C522.807 526.016 522.943 525.96 523.103 525.96H524.231C524.391 525.96 524.519 526.016 524.615 526.128C524.727 526.224 524.783 526.352 524.783 526.512V530.52H527.759C527.919 530.52 528.047 530.576 528.143 530.688C528.255 530.784 528.311 530.912 528.311 531.072V531.888C528.311 532.048 528.255 532.184 528.143 532.296C528.047 532.392 527.919 532.44 527.759 532.44H524.783V538.608C524.783 539.408 524.919 540.016 525.191 540.432C525.463 540.832 525.911 541.032 526.535 541.032H527.999C528.159 541.032 528.287 541.088 528.383 541.2C528.495 541.296 528.551 541.424 528.551 541.584V542.448C528.551 542.608 528.495 542.744 528.383 542.856C528.287 542.952 528.159 543 527.999 543H526.343ZM533.03 547.56C532.902 547.56 532.79 547.512 532.694 547.416C532.598 547.32 532.55 547.208 532.55 547.08C532.55 546.968 532.59 546.824 532.67 546.648L534.518 542.256L529.934 531.432C529.854 531.224 529.814 531.088 529.814 531.024C529.814 530.88 529.862 530.76 529.958 530.664C530.054 530.568 530.174 530.52 530.318 530.52H531.494C531.75 530.52 531.942 530.656 532.07 530.928L535.718 539.664L539.462 530.928C539.59 530.656 539.79 530.52 540.062 530.52H541.19C541.334 530.52 541.454 530.568 541.55 530.664C541.646 530.76 541.694 530.872 541.694 531C541.694 531.048 541.654 531.192 541.574 531.432L534.758 547.152C534.63 547.424 534.43 547.56 534.158 547.56H533.03ZM549.915 543C549.755 543 549.619 542.952 549.507 542.856C549.411 542.744 549.363 542.608 549.363 542.448V526.512C549.363 526.352 549.411 526.224 549.507 526.128C549.619 526.016 549.755 525.96 549.915 525.96H551.043C551.203 525.96 551.331 526.016 551.427 526.128C551.539 526.224 551.595 526.352 551.595 526.512V542.448C551.595 542.608 551.539 542.744 551.427 542.856C551.331 542.952 551.203 543 551.043 543H549.915ZM560.166 543.24C558.518 543.24 557.198 542.736 556.206 541.728C555.23 540.704 554.694 539.312 554.598 537.552L554.574 536.736L554.598 535.944C554.71 534.216 555.254 532.84 556.23 531.816C557.222 530.792 558.526 530.28 560.142 530.28C561.918 530.28 563.294 530.848 564.27 531.984C565.246 533.104 565.734 534.624 565.734 536.544V536.952C565.734 537.112 565.678 537.248 565.566 537.36C565.47 537.456 565.342 537.504 565.182 537.504H556.878V537.72C556.926 538.76 557.238 539.648 557.814 540.384C558.406 541.104 559.182 541.464 560.142 541.464C560.878 541.464 561.478 541.32 561.942 541.032C562.422 540.728 562.774 540.416 562.998 540.096C563.142 539.904 563.246 539.792 563.31 539.76C563.39 539.712 563.526 539.688 563.718 539.688H564.894C565.038 539.688 565.158 539.728 565.254 539.808C565.35 539.888 565.398 540 565.398 540.144C565.398 540.496 565.174 540.92 564.726 541.416C564.294 541.912 563.678 542.344 562.878 542.712C562.094 543.064 561.19 543.24 560.166 543.24ZM563.454 535.848V535.776C563.454 534.672 563.15 533.776 562.542 533.088C561.95 532.384 561.15 532.032 560.142 532.032C559.134 532.032 558.334 532.384 557.742 533.088C557.166 533.776 556.878 534.672 556.878 535.776V535.848H563.454ZM572.526 543C572.11 543 571.814 542.8 571.638 542.4L567.198 531.264L567.15 531.024C567.15 530.88 567.198 530.76 567.294 530.664C567.39 530.568 567.51 530.52 567.654 530.52H568.806C569.078 530.52 569.278 530.656 569.406 530.928L573.054 540.384L576.702 530.928C576.846 530.656 577.038 530.52 577.278 530.52H578.454C578.582 530.52 578.694 530.568 578.79 530.664C578.902 530.76 578.958 530.88 578.958 531.024L578.91 531.264L574.446 542.4C574.27 542.8 573.974 543 573.558 543H572.526ZM586.018 543.24C584.37 543.24 583.05 542.736 582.058 541.728C581.082 540.704 580.546 539.312 580.45 537.552L580.426 536.736L580.45 535.944C580.562 534.216 581.106 532.84 582.082 531.816C583.074 530.792 584.378 530.28 585.994 530.28C587.77 530.28 589.146 530.848 590.122 531.984C591.098 533.104 591.586 534.624 591.586 536.544V536.952C591.586 537.112 591.53 537.248 591.418 537.36C591.322 537.456 591.194 537.504 591.034 537.504H582.73V537.72C582.778 538.76 583.09 539.648 583.666 540.384C584.258 541.104 585.034 541.464 585.994 541.464C586.73 541.464 587.33 541.32 587.794 541.032C588.274 540.728 588.626 540.416 588.85 540.096C588.994 539.904 589.098 539.792 589.162 539.76C589.242 539.712 589.378 539.688 589.57 539.688H590.746C590.89 539.688 591.01 539.728 591.106 539.808C591.202 539.888 591.25 540 591.25 540.144C591.25 540.496 591.026 540.92 590.578 541.416C590.146 541.912 589.53 542.344 588.73 542.712C587.946 543.064 587.042 543.24 586.018 543.24ZM589.306 535.848V535.776C589.306 534.672 589.002 533.776 588.394 533.088C587.802 532.384 587.002 532.032 585.994 532.032C584.986 532.032 584.186 532.384 583.594 533.088C583.018 533.776 582.73 534.672 582.73 535.776V535.848H589.306ZM595.032 543C594.872 543 594.736 542.952 594.624 542.856C594.528 542.744 594.48 542.608 594.48 542.448V526.512C594.48 526.352 594.528 526.224 594.624 526.128C594.736 526.016 594.872 525.96 595.032 525.96H596.16C596.32 525.96 596.448 526.016 596.544 526.128C596.656 526.224 596.712 526.352 596.712 526.512V542.448C596.712 542.608 596.656 542.744 596.544 542.856C596.448 542.952 596.32 543 596.16 543H595.032Z" fill="#FAFAFA"/>
<path d="M309.208 607.24C307.112 607.24 305.48 606.672 304.312 605.536C303.16 604.384 302.544 602.816 302.464 600.832C302.448 600.352 302.44 599.6 302.44 598.576C302.44 597.536 302.448 596.784 302.464 596.32C302.544 594.352 303.168 592.8 304.336 591.664C305.504 590.528 307.128 589.96 309.208 589.96C310.616 589.96 311.808 590.216 312.784 590.728C313.776 591.224 314.52 591.832 315.016 592.552C315.512 593.272 315.776 593.944 315.808 594.568V594.616C315.808 594.744 315.76 594.848 315.664 594.928C315.568 595.008 315.448 595.048 315.304 595.048H313.888C313.728 595.048 313.608 595.024 313.528 594.976C313.464 594.912 313.4 594.792 313.336 594.616C313.096 593.896 312.632 593.28 311.944 592.768C311.272 592.256 310.36 592 309.208 592C307.88 592 306.84 592.36 306.088 593.08C305.336 593.8 304.928 594.92 304.864 596.44C304.848 596.904 304.84 597.616 304.84 598.576C304.84 599.52 304.848 600.232 304.864 600.712C304.928 602.248 305.336 603.384 306.088 604.12C306.84 604.84 307.88 605.2 309.208 605.2C310.552 605.2 311.624 604.832 312.424 604.096C313.224 603.36 313.624 602.256 313.624 600.784V599.776H310.024C309.864 599.776 309.728 599.728 309.616 599.632C309.52 599.52 309.472 599.376 309.472 599.2V598.432C309.472 598.272 309.52 598.136 309.616 598.024C309.728 597.912 309.864 597.856 310.024 597.856H315.448C315.608 597.856 315.736 597.912 315.832 598.024C315.944 598.12 316 598.256 316 598.432V600.736C316 602.048 315.728 603.192 315.184 604.168C314.64 605.144 313.856 605.904 312.832 606.448C311.808 606.976 310.6 607.24 309.208 607.24ZM324.104 607.24C322.456 607.24 321.136 606.736 320.144 605.728C319.168 604.704 318.632 603.312 318.536 601.552L318.512 600.736L318.536 599.944C318.648 598.216 319.192 596.84 320.168 595.816C321.16 594.792 322.464 594.28 324.08 594.28C325.856 594.28 327.232 594.848 328.208 595.984C329.184 597.104 329.672 598.624 329.672 600.544V600.952C329.672 601.112 329.616 601.248 329.504 601.36C329.408 601.456 329.28 601.504 329.12 601.504H320.816V601.72C320.864 602.76 321.176 603.648 321.752 604.384C322.344 605.104 323.12 605.464 324.08 605.464C324.816 605.464 325.416 605.32 325.88 605.032C326.36 604.728 326.712 604.416 326.936 604.096C327.08 603.904 327.184 603.792 327.248 603.76C327.328 603.712 327.464 603.688 327.656 603.688H328.832C328.976 603.688 329.096 603.728 329.192 603.808C329.288 603.888 329.336 604 329.336 604.144C329.336 604.496 329.112 604.92 328.664 605.416C328.232 605.912 327.616 606.344 326.816 606.712C326.032 607.064 325.128 607.24 324.104 607.24ZM327.392 599.848V599.776C327.392 598.672 327.088 597.776 326.48 597.088C325.888 596.384 325.088 596.032 324.08 596.032C323.072 596.032 322.272 596.384 321.68 597.088C321.104 597.776 320.816 598.672 320.816 599.776V599.848H327.392ZM337.343 607C334.815 607 333.551 605.592 333.551 602.776V596.44H331.679C331.519 596.44 331.383 596.392 331.271 596.296C331.175 596.184 331.127 596.048 331.127 595.888V595.072C331.127 594.912 331.175 594.784 331.271 594.688C331.383 594.576 331.519 594.52 331.679 594.52H333.551V590.512C333.551 590.352 333.599 590.224 333.695 590.128C333.807 590.016 333.943 589.96 334.103 589.96H335.231C335.391 589.96 335.519 590.016 335.615 590.128C335.727 590.224 335.783 590.352 335.783 590.512V594.52H338.759C338.919 594.52 339.047 594.576 339.143 594.688C339.255 594.784 339.311 594.912 339.311 595.072V595.888C339.311 596.048 339.255 596.184 339.143 596.296C339.047 596.392 338.919 596.44 338.759 596.44H335.783V602.608C335.783 603.408 335.919 604.016 336.191 604.432C336.463 604.832 336.911 605.032 337.535 605.032H338.999C339.159 605.032 339.287 605.088 339.383 605.2C339.495 605.296 339.551 605.424 339.551 605.584V606.448C339.551 606.608 339.495 606.744 339.383 606.856C339.287 606.952 339.159 607 338.999 607H337.343ZM348.281 607C348.121 607 347.985 606.952 347.873 606.856C347.777 606.744 347.729 606.608 347.729 606.448V595.072C347.729 594.912 347.777 594.784 347.873 594.688C347.985 594.576 348.121 594.52 348.281 594.52H349.361C349.521 594.52 349.649 594.576 349.745 594.688C349.857 594.784 349.913 594.912 349.913 595.072V595.912C350.745 594.824 351.905 594.28 353.393 594.28C355.169 594.28 356.425 595.016 357.161 596.488C357.545 595.816 358.089 595.28 358.793 594.88C359.497 594.48 360.289 594.28 361.169 594.28C362.481 594.28 363.553 594.728 364.385 595.624C365.217 596.52 365.633 597.816 365.633 599.512V606.448C365.633 606.608 365.577 606.744 365.465 606.856C365.369 606.952 365.241 607 365.081 607H363.953C363.793 607 363.657 606.952 363.545 606.856C363.449 606.744 363.401 606.608 363.401 606.448V599.728C363.401 598.48 363.137 597.584 362.609 597.04C362.097 596.496 361.417 596.224 360.569 596.224C359.817 596.224 359.169 596.504 358.625 597.064C358.081 597.608 357.809 598.496 357.809 599.728V606.448C357.809 606.608 357.753 606.744 357.641 606.856C357.545 606.952 357.417 607 357.257 607H356.129C355.969 607 355.833 606.952 355.721 606.856C355.625 606.744 355.577 606.608 355.577 606.448V599.728C355.577 598.48 355.305 597.584 354.761 597.04C354.233 596.496 353.561 596.224 352.745 596.224C351.993 596.224 351.345 596.504 350.801 597.064C350.257 597.608 349.985 598.488 349.985 599.704V606.448C349.985 606.608 349.929 606.744 349.817 606.856C349.721 606.952 349.593 607 349.433 607H348.281ZM372.537 607.24C371.753 607.24 371.025 607.08 370.353 606.76C369.681 606.44 369.145 606.008 368.745 605.464C368.361 604.904 368.169 604.288 368.169 603.616C368.169 602.56 368.601 601.696 369.465 601.024C370.345 600.336 371.529 599.888 373.017 599.68L376.593 599.176V598.48C376.593 596.848 375.657 596.032 373.785 596.032C373.081 596.032 372.505 596.184 372.057 596.488C371.609 596.776 371.273 597.12 371.049 597.52C371.001 597.664 370.937 597.768 370.857 597.832C370.793 597.896 370.697 597.928 370.569 597.928H369.537C369.393 597.928 369.265 597.88 369.153 597.784C369.057 597.672 369.009 597.544 369.009 597.4C369.025 597.016 369.201 596.584 369.537 596.104C369.889 595.608 370.425 595.184 371.145 594.832C371.865 594.464 372.753 594.28 373.809 594.28C375.601 594.28 376.889 594.704 377.673 595.552C378.457 596.384 378.849 597.424 378.849 598.672V606.448C378.849 606.608 378.793 606.744 378.681 606.856C378.585 606.952 378.457 607 378.297 607H377.193C377.033 607 376.897 606.952 376.785 606.856C376.689 606.744 376.641 606.608 376.641 606.448V605.416C376.289 605.928 375.777 606.36 375.105 606.712C374.433 607.064 373.577 607.24 372.537 607.24ZM373.041 605.44C374.081 605.44 374.929 605.104 375.585 604.432C376.257 603.744 376.593 602.76 376.593 601.48V600.808L373.809 601.216C372.673 601.376 371.817 601.648 371.241 602.032C370.665 602.4 370.377 602.872 370.377 603.448C370.377 604.088 370.641 604.584 371.169 604.936C371.697 605.272 372.321 605.44 373.041 605.44ZM387.054 607C384.526 607 383.262 605.592 383.262 602.776V596.44H381.39C381.23 596.44 381.094 596.392 380.982 596.296C380.886 596.184 380.838 596.048 380.838 595.888V595.072C380.838 594.912 380.886 594.784 380.982 594.688C381.094 594.576 381.23 594.52 381.39 594.52H383.262V590.512C383.262 590.352 383.31 590.224 383.406 590.128C383.518 590.016 383.654 589.96 383.814 589.96H384.942C385.102 589.96 385.23 590.016 385.326 590.128C385.438 590.224 385.494 590.352 385.494 590.512V594.52H388.47C388.63 594.52 388.758 594.576 388.854 594.688C388.966 594.784 389.022 594.912 389.022 595.072V595.888C389.022 596.048 388.966 596.184 388.854 596.296C388.758 596.392 388.63 596.44 388.47 596.44H385.494V602.608C385.494 603.408 385.63 604.016 385.902 604.432C386.174 604.832 386.622 605.032 387.246 605.032H388.71C388.87 605.032 388.998 605.088 389.094 605.2C389.206 605.296 389.262 605.424 389.262 605.584V606.448C389.262 606.608 389.206 606.744 389.094 606.856C388.998 606.952 388.87 607 388.71 607H387.054ZM396.597 607.24C394.885 607.24 393.541 606.76 392.565 605.8C391.605 604.824 391.093 603.464 391.029 601.72L391.005 600.76L391.029 599.8C391.093 598.056 391.605 596.704 392.565 595.744C393.541 594.768 394.885 594.28 396.597 594.28C397.749 594.28 398.725 594.488 399.525 594.904C400.325 595.32 400.917 595.832 401.301 596.44C401.701 597.048 401.917 597.656 401.949 598.264C401.965 598.424 401.917 598.552 401.805 598.648C401.693 598.744 401.557 598.792 401.397 598.792H400.245C400.085 598.792 399.965 598.76 399.885 598.696C399.805 598.632 399.725 598.504 399.645 598.312C399.373 597.544 398.989 597 398.493 596.68C397.997 596.344 397.373 596.176 396.621 596.176C395.629 596.176 394.837 596.488 394.245 597.112C393.669 597.72 393.357 598.656 393.309 599.92L393.285 600.784L393.309 601.6C393.357 602.88 393.669 603.824 394.245 604.432C394.821 605.04 395.613 605.344 396.621 605.344C397.373 605.344 397.997 605.184 398.493 604.864C398.989 604.528 399.373 603.976 399.645 603.208C399.725 603.016 399.805 602.888 399.885 602.824C399.965 602.744 400.085 602.704 400.245 602.704H401.397C401.557 602.704 401.693 602.76 401.805 602.872C401.917 602.968 401.965 603.096 401.949 603.256C401.917 603.848 401.701 604.456 401.301 605.08C400.917 605.688 400.325 606.2 399.525 606.616C398.741 607.032 397.765 607.24 396.597 607.24ZM405.375 607C405.215 607 405.079 606.952 404.967 606.856C404.871 606.744 404.823 606.608 404.823 606.448V590.512C404.823 590.352 404.871 590.224 404.967 590.128C405.079 590.016 405.215 589.96 405.375 589.96H406.575C406.735 589.96 406.863 590.016 406.959 590.128C407.071 590.224 407.127 590.352 407.127 590.512V596.104C407.591 595.512 408.135 595.064 408.759 594.76C409.383 594.44 410.159 594.28 411.087 594.28C412.623 594.28 413.815 594.776 414.663 595.768C415.527 596.744 415.959 598.048 415.959 599.68V606.448C415.959 606.608 415.903 606.744 415.791 606.856C415.695 606.952 415.567 607 415.407 607H414.207C414.047 607 413.911 606.952 413.799 606.856C413.703 606.744 413.655 606.608 413.655 606.448V599.8C413.655 598.664 413.375 597.784 412.815 597.16C412.271 596.536 411.479 596.224 410.439 596.224C409.431 596.224 408.623 596.544 408.015 597.184C407.423 597.808 407.127 598.68 407.127 599.8V606.448C407.127 606.608 407.071 606.744 406.959 606.856C406.863 606.952 406.735 607 406.575 607H405.375ZM424.416 607.24C422.768 607.24 421.448 606.736 420.456 605.728C419.48 604.704 418.944 603.312 418.848 601.552L418.824 600.736L418.848 599.944C418.96 598.216 419.504 596.84 420.48 595.816C421.472 594.792 422.776 594.28 424.392 594.28C426.168 594.28 427.544 594.848 428.52 595.984C429.496 597.104 429.984 598.624 429.984 600.544V600.952C429.984 601.112 429.928 601.248 429.816 601.36C429.72 601.456 429.592 601.504 429.432 601.504H421.128V601.72C421.176 602.76 421.488 603.648 422.064 604.384C422.656 605.104 423.432 605.464 424.392 605.464C425.128 605.464 425.728 605.32 426.192 605.032C426.672 604.728 427.024 604.416 427.248 604.096C427.392 603.904 427.496 603.792 427.56 603.76C427.64 603.712 427.776 603.688 427.968 603.688H429.144C429.288 603.688 429.408 603.728 429.504 603.808C429.6 603.888 429.648 604 429.648 604.144C429.648 604.496 429.424 604.92 428.976 605.416C428.544 605.912 427.928 606.344 427.128 606.712C426.344 607.064 425.44 607.24 424.416 607.24ZM427.704 599.848V599.776C427.704 598.672 427.4 597.776 426.792 597.088C426.2 596.384 425.4 596.032 424.392 596.032C423.384 596.032 422.584 596.384 421.992 597.088C421.416 597.776 421.128 598.672 421.128 599.776V599.848H427.704ZM437.414 607.24C435.75 607.24 434.494 606.696 433.646 605.608C432.798 604.52 432.35 603.144 432.302 601.48L432.278 600.76L432.302 600.04C432.35 598.392 432.798 597.024 433.646 595.936C434.494 594.832 435.75 594.28 437.414 594.28C439.062 594.28 440.358 594.864 441.302 596.032V590.512C441.302 590.352 441.35 590.224 441.446 590.128C441.558 590.016 441.694 589.96 441.854 589.96H443.006C443.166 589.96 443.294 590.016 443.39 590.128C443.502 590.224 443.558 590.352 443.558 590.512V606.448C443.558 606.608 443.502 606.744 443.39 606.856C443.294 606.952 443.166 607 443.006 607H441.926C441.766 607 441.63 606.952 441.518 606.856C441.422 606.744 441.374 606.608 441.374 606.448V605.44C440.446 606.64 439.126 607.24 437.414 607.24ZM437.918 605.296C439.022 605.296 439.846 604.936 440.39 604.216C440.95 603.48 441.254 602.608 441.302 601.6C441.318 601.424 441.326 601.12 441.326 600.688C441.326 600.24 441.318 599.928 441.302 599.752C441.27 598.808 440.966 597.984 440.39 597.28C439.814 596.576 438.99 596.224 437.918 596.224C436.782 596.224 435.95 596.576 435.422 597.28C434.91 597.984 434.63 598.912 434.582 600.064L434.558 600.76C434.558 603.784 435.678 605.296 437.918 605.296Z" fill="#FAFAFA"/>
<path d="M309.136 671.24C306.992 671.24 305.36 670.664 304.24 669.512C303.136 668.36 302.544 666.768 302.464 664.736C302.448 664.304 302.44 663.6 302.44 662.624C302.44 661.632 302.448 660.912 302.464 660.464C302.544 658.448 303.144 656.864 304.264 655.712C305.384 654.544 307.008 653.96 309.136 653.96C310.56 653.96 311.768 654.216 312.76 654.728C313.752 655.224 314.504 655.88 315.016 656.696C315.528 657.512 315.808 658.384 315.856 659.312V659.36C315.856 659.488 315.8 659.6 315.688 659.696C315.592 659.776 315.48 659.816 315.352 659.816H314.032C313.712 659.816 313.512 659.632 313.432 659.264C313.16 658.064 312.672 657.224 311.968 656.744C311.264 656.248 310.32 656 309.136 656C306.384 656 304.96 657.528 304.864 660.584C304.848 661.016 304.84 661.68 304.84 662.576C304.84 663.472 304.848 664.152 304.864 664.616C304.96 667.672 306.384 669.2 309.136 669.2C310.32 669.2 311.264 668.96 311.968 668.48C312.688 667.984 313.176 667.136 313.432 665.936C313.48 665.728 313.552 665.584 313.648 665.504C313.744 665.424 313.872 665.384 314.032 665.384H315.352C315.496 665.384 315.616 665.432 315.712 665.528C315.824 665.608 315.872 665.72 315.856 665.864C315.808 666.808 315.528 667.688 315.016 668.504C314.504 669.32 313.752 669.984 312.76 670.496C311.768 670.992 310.56 671.24 309.136 671.24ZM323.872 671.24C322.112 671.24 320.744 670.744 319.768 669.752C318.808 668.76 318.296 667.44 318.232 665.792L318.208 664.76L318.232 663.728C318.296 662.096 318.816 660.784 319.792 659.792C320.768 658.784 322.128 658.28 323.872 658.28C325.616 658.28 326.976 658.784 327.952 659.792C328.928 660.784 329.448 662.096 329.512 663.728C329.528 663.904 329.536 664.248 329.536 664.76C329.536 665.272 329.528 665.616 329.512 665.792C329.448 667.44 328.928 668.76 327.952 669.752C326.992 670.744 325.632 671.24 323.872 671.24ZM323.872 669.392C324.88 669.392 325.672 669.072 326.248 668.432C326.84 667.792 327.16 666.872 327.208 665.672C327.224 665.512 327.232 665.208 327.232 664.76C327.232 664.312 327.224 664.008 327.208 663.848C327.16 662.648 326.84 661.728 326.248 661.088C325.672 660.448 324.88 660.128 323.872 660.128C322.864 660.128 322.064 660.448 321.472 661.088C320.88 661.728 320.568 662.648 320.536 663.848L320.512 664.76L320.536 665.672C320.568 666.872 320.88 667.792 321.472 668.432C322.064 669.072 322.864 669.392 323.872 669.392ZM333.118 671C332.958 671 332.822 670.952 332.71 670.856C332.614 670.744 332.566 670.608 332.566 670.448V654.512C332.566 654.352 332.614 654.224 332.71 654.128C332.822 654.016 332.958 653.96 333.118 653.96H334.246C334.406 653.96 334.534 654.016 334.63 654.128C334.742 654.224 334.798 654.352 334.798 654.512V670.448C334.798 670.608 334.742 670.744 334.63 670.856C334.534 670.952 334.406 671 334.246 671H333.118ZM338.954 671C338.794 671 338.658 670.952 338.546 670.856C338.45 670.744 338.402 670.608 338.402 670.448V654.512C338.402 654.352 338.45 654.224 338.546 654.128C338.658 654.016 338.794 653.96 338.954 653.96H340.082C340.242 653.96 340.37 654.016 340.466 654.128C340.578 654.224 340.634 654.352 340.634 654.512V670.448C340.634 670.608 340.578 670.744 340.466 670.856C340.37 670.952 340.242 671 340.082 671H338.954ZM347.694 671.24C346.91 671.24 346.182 671.08 345.51 670.76C344.838 670.44 344.302 670.008 343.902 669.464C343.518 668.904 343.326 668.288 343.326 667.616C343.326 666.56 343.758 665.696 344.622 665.024C345.502 664.336 346.686 663.888 348.174 663.68L351.75 663.176V662.48C351.75 660.848 350.814 660.032 348.942 660.032C348.238 660.032 347.662 660.184 347.214 660.488C346.766 660.776 346.43 661.12 346.206 661.52C346.158 661.664 346.094 661.768 346.014 661.832C345.95 661.896 345.854 661.928 345.726 661.928H344.694C344.55 661.928 344.422 661.88 344.31 661.784C344.214 661.672 344.166 661.544 344.166 661.4C344.182 661.016 344.358 660.584 344.694 660.104C345.046 659.608 345.582 659.184 346.302 658.832C347.022 658.464 347.91 658.28 348.966 658.28C350.758 658.28 352.046 658.704 352.83 659.552C353.614 660.384 354.006 661.424 354.006 662.672V670.448C354.006 670.608 353.95 670.744 353.838 670.856C353.742 670.952 353.614 671 353.454 671H352.35C352.19 671 352.054 670.952 351.942 670.856C351.846 670.744 351.798 670.608 351.798 670.448V669.416C351.446 669.928 350.934 670.36 350.262 670.712C349.59 671.064 348.734 671.24 347.694 671.24ZM348.198 669.44C349.238 669.44 350.086 669.104 350.742 668.432C351.414 667.744 351.75 666.76 351.75 665.48V664.808L348.966 665.216C347.83 665.376 346.974 665.648 346.398 666.032C345.822 666.4 345.534 666.872 345.534 667.448C345.534 668.088 345.798 668.584 346.326 668.936C346.854 669.272 347.478 669.44 348.198 669.44ZM363.624 671.24C361.896 671.24 360.584 670.64 359.688 669.44V670.448C359.688 670.608 359.632 670.744 359.52 670.856C359.424 670.952 359.296 671 359.136 671H358.032C357.872 671 357.736 670.952 357.624 670.856C357.528 670.744 357.48 670.608 357.48 670.448V654.512C357.48 654.352 357.528 654.224 357.624 654.128C357.736 654.016 357.872 653.96 358.032 653.96H359.208C359.368 653.96 359.496 654.016 359.592 654.128C359.688 654.224 359.736 654.352 359.736 654.512V660.032C360.68 658.864 361.976 658.28 363.624 658.28C365.288 658.28 366.544 658.832 367.392 659.936C368.24 661.024 368.696 662.392 368.76 664.04C368.776 664.216 368.784 664.456 368.784 664.76C368.784 665.064 368.776 665.304 368.76 665.48C368.696 667.144 368.24 668.52 367.392 669.608C366.544 670.696 365.288 671.24 363.624 671.24ZM363.12 669.296C364.256 669.296 365.08 668.944 365.592 668.24C366.12 667.536 366.408 666.608 366.456 665.456C366.472 665.296 366.48 665.064 366.48 664.76C366.48 661.736 365.36 660.224 363.12 660.224C362.048 660.224 361.224 660.576 360.648 661.28C360.072 661.984 359.768 662.808 359.736 663.752L359.712 664.688L359.736 665.6C359.784 666.608 360.08 667.48 360.624 668.216C361.184 668.936 362.016 669.296 363.12 669.296ZM376.841 671.24C375.081 671.24 373.713 670.744 372.737 669.752C371.777 668.76 371.265 667.44 371.201 665.792L371.177 664.76L371.201 663.728C371.265 662.096 371.785 660.784 372.761 659.792C373.737 658.784 375.097 658.28 376.841 658.28C378.585 658.28 379.945 658.784 380.921 659.792C381.897 660.784 382.417 662.096 382.481 663.728C382.497 663.904 382.505 664.248 382.505 664.76C382.505 665.272 382.497 665.616 382.481 665.792C382.417 667.44 381.897 668.76 380.921 669.752C379.961 670.744 378.601 671.24 376.841 671.24ZM376.841 669.392C377.849 669.392 378.641 669.072 379.217 668.432C379.809 667.792 380.129 666.872 380.177 665.672C380.193 665.512 380.201 665.208 380.201 664.76C380.201 664.312 380.193 664.008 380.177 663.848C380.129 662.648 379.809 661.728 379.217 661.088C378.641 660.448 377.849 660.128 376.841 660.128C375.833 660.128 375.033 660.448 374.441 661.088C373.849 661.728 373.537 662.648 373.505 663.848L373.481 664.76L373.505 665.672C373.537 666.872 373.849 667.792 374.441 668.432C375.033 669.072 375.833 669.392 376.841 669.392ZM386.062 671C385.902 671 385.766 670.952 385.654 670.856C385.558 670.744 385.51 670.608 385.51 670.448V659.096C385.51 658.936 385.558 658.8 385.654 658.688C385.766 658.576 385.902 658.52 386.062 658.52H387.166C387.326 658.52 387.462 658.576 387.574 658.688C387.686 658.8 387.742 658.936 387.742 659.096V660.152C388.398 659.064 389.518 658.52 391.102 658.52H392.038C392.198 658.52 392.326 658.576 392.422 658.688C392.534 658.784 392.59 658.912 392.59 659.072V660.056C392.59 660.216 392.534 660.344 392.422 660.44C392.326 660.536 392.198 660.584 392.038 660.584H390.598C389.734 660.584 389.054 660.84 388.558 661.352C388.062 661.848 387.814 662.528 387.814 663.392V670.448C387.814 670.608 387.758 670.744 387.646 670.856C387.534 670.952 387.398 671 387.238 671H386.062ZM397.92 671.24C397.136 671.24 396.408 671.08 395.736 670.76C395.064 670.44 394.528 670.008 394.128 669.464C393.744 668.904 393.552 668.288 393.552 667.616C393.552 666.56 393.984 665.696 394.848 665.024C395.728 664.336 396.912 663.888 398.4 663.68L401.976 663.176V662.48C401.976 660.848 401.04 660.032 399.168 660.032C398.464 660.032 397.888 660.184 397.44 660.488C396.992 660.776 396.656 661.12 396.432 661.52C396.384 661.664 396.32 661.768 396.24 661.832C396.176 661.896 396.08 661.928 395.952 661.928H394.92C394.776 661.928 394.648 661.88 394.536 661.784C394.44 661.672 394.392 661.544 394.392 661.4C394.408 661.016 394.584 660.584 394.92 660.104C395.272 659.608 395.808 659.184 396.528 658.832C397.248 658.464 398.136 658.28 399.192 658.28C400.984 658.28 402.272 658.704 403.056 659.552C403.84 660.384 404.232 661.424 404.232 662.672V670.448C404.232 670.608 404.176 670.744 404.064 670.856C403.968 670.952 403.84 671 403.68 671H402.576C402.416 671 402.28 670.952 402.168 670.856C402.072 670.744 402.024 670.608 402.024 670.448V669.416C401.672 669.928 401.16 670.36 400.488 670.712C399.816 671.064 398.96 671.24 397.92 671.24ZM398.424 669.44C399.464 669.44 400.312 669.104 400.968 668.432C401.64 667.744 401.976 666.76 401.976 665.48V664.808L399.192 665.216C398.056 665.376 397.2 665.648 396.624 666.032C396.048 666.4 395.76 666.872 395.76 667.448C395.76 668.088 396.024 668.584 396.552 668.936C397.08 669.272 397.704 669.44 398.424 669.44ZM412.437 671C409.909 671 408.645 669.592 408.645 666.776V660.44H406.773C406.613 660.44 406.477 660.392 406.365 660.296C406.269 660.184 406.221 660.048 406.221 659.888V659.072C406.221 658.912 406.269 658.784 406.365 658.688C406.477 658.576 406.613 658.52 406.773 658.52H408.645V654.512C408.645 654.352 408.693 654.224 408.789 654.128C408.901 654.016 409.037 653.96 409.197 653.96H410.325C410.485 653.96 410.613 654.016 410.709 654.128C410.821 654.224 410.877 654.352 410.877 654.512V658.52H413.853C414.013 658.52 414.141 658.576 414.237 658.688C414.349 658.784 414.405 658.912 414.405 659.072V659.888C414.405 660.048 414.349 660.184 414.237 660.296C414.141 660.392 414.013 660.44 413.853 660.44H410.877V666.608C410.877 667.408 411.013 668.016 411.285 668.432C411.557 668.832 412.005 669.032 412.629 669.032H414.093C414.253 669.032 414.381 669.088 414.477 669.2C414.589 669.296 414.645 669.424 414.645 669.584V670.448C414.645 670.608 414.589 670.744 414.477 670.856C414.381 670.952 414.253 671 414.093 671H412.437ZM421.932 671.24C420.284 671.24 418.964 670.736 417.972 669.728C416.996 668.704 416.46 667.312 416.364 665.552L416.34 664.736L416.364 663.944C416.476 662.216 417.02 660.84 417.996 659.816C418.988 658.792 420.292 658.28 421.908 658.28C423.684 658.28 425.06 658.848 426.036 659.984C427.012 661.104 427.5 662.624 427.5 664.544V664.952C427.5 665.112 427.444 665.248 427.332 665.36C427.236 665.456 427.108 665.504 426.948 665.504H418.644V665.72C418.692 666.76 419.004 667.648 419.58 668.384C420.172 669.104 420.948 669.464 421.908 669.464C422.644 669.464 423.244 669.32 423.708 669.032C424.188 668.728 424.54 668.416 424.764 668.096C424.908 667.904 425.012 667.792 425.076 667.76C425.156 667.712 425.292 667.688 425.484 667.688H426.66C426.804 667.688 426.924 667.728 427.02 667.808C427.116 667.888 427.164 668 427.164 668.144C427.164 668.496 426.94 668.92 426.492 669.416C426.06 669.912 425.444 670.344 424.644 670.712C423.86 671.064 422.956 671.24 421.932 671.24ZM425.22 663.848V663.776C425.22 662.672 424.916 661.776 424.308 661.088C423.716 660.384 422.916 660.032 421.908 660.032C420.9 660.032 420.1 660.384 419.508 661.088C418.932 661.776 418.644 662.672 418.644 663.776V663.848H425.22ZM441.365 671.24C439.605 671.24 438.237 670.744 437.261 669.752C436.301 668.76 435.789 667.44 435.725 665.792L435.701 664.76L435.725 663.728C435.789 662.096 436.309 660.784 437.285 659.792C438.261 658.784 439.621 658.28 441.365 658.28C443.109 658.28 444.469 658.784 445.445 659.792C446.421 660.784 446.941 662.096 447.005 663.728C447.021 663.904 447.029 664.248 447.029 664.76C447.029 665.272 447.021 665.616 447.005 665.792C446.941 667.44 446.421 668.76 445.445 669.752C444.485 670.744 443.125 671.24 441.365 671.24ZM441.365 669.392C442.373 669.392 443.165 669.072 443.741 668.432C444.333 667.792 444.653 666.872 444.701 665.672C444.717 665.512 444.725 665.208 444.725 664.76C444.725 664.312 444.717 664.008 444.701 663.848C444.653 662.648 444.333 661.728 443.741 661.088C443.165 660.448 442.373 660.128 441.365 660.128C440.357 660.128 439.557 660.448 438.965 661.088C438.373 661.728 438.061 662.648 438.029 663.848L438.005 664.76L438.029 665.672C438.061 666.872 438.373 667.792 438.965 668.432C439.557 669.072 440.357 669.392 441.365 669.392ZM450.586 671C450.426 671 450.29 670.952 450.178 670.856C450.082 670.744 450.034 670.608 450.034 670.448V659.072C450.034 658.912 450.082 658.784 450.178 658.688C450.29 658.576 450.426 658.52 450.586 658.52H451.714C451.874 658.52 452.002 658.576 452.098 658.688C452.21 658.784 452.266 658.912 452.266 659.072V660.128C452.73 659.536 453.274 659.08 453.898 658.76C454.538 658.44 455.33 658.28 456.274 658.28C457.81 658.28 459.002 658.776 459.85 659.768C460.714 660.744 461.146 662.048 461.146 663.68V670.448C461.146 670.608 461.09 670.744 460.978 670.856C460.882 670.952 460.754 671 460.594 671H459.394C459.234 671 459.098 670.952 458.986 670.856C458.89 670.744 458.842 670.608 458.842 670.448V663.8C458.842 662.664 458.562 661.784 458.002 661.16C457.458 660.536 456.666 660.224 455.626 660.224C454.618 660.224 453.818 660.544 453.226 661.184C452.634 661.808 452.338 662.68 452.338 663.8V670.448C452.338 670.608 452.282 670.744 452.17 670.856C452.074 670.952 451.946 671 451.786 671H450.586ZM474.828 671C472.3 671 471.036 669.592 471.036 666.776V660.44H469.164C469.004 660.44 468.868 660.392 468.756 660.296C468.66 660.184 468.612 660.048 468.612 659.888V659.072C468.612 658.912 468.66 658.784 468.756 658.688C468.868 658.576 469.004 658.52 469.164 658.52H471.036V654.512C471.036 654.352 471.084 654.224 471.18 654.128C471.292 654.016 471.428 653.96 471.588 653.96H472.716C472.876 653.96 473.004 654.016 473.1 654.128C473.212 654.224 473.268 654.352 473.268 654.512V658.52H476.244C476.404 658.52 476.532 658.576 476.628 658.688C476.74 658.784 476.796 658.912 476.796 659.072V659.888C476.796 660.048 476.74 660.184 476.628 660.296C476.532 660.392 476.404 660.44 476.244 660.44H473.268V666.608C473.268 667.408 473.404 668.016 473.676 668.432C473.948 668.832 474.396 669.032 475.02 669.032H476.484C476.644 669.032 476.772 669.088 476.868 669.2C476.98 669.296 477.036 669.424 477.036 669.584V670.448C477.036 670.608 476.98 670.744 476.868 670.856C476.772 670.952 476.644 671 476.484 671H474.828ZM479.907 671C479.747 671 479.611 670.952 479.499 670.856C479.403 670.744 479.355 670.608 479.355 670.448V654.512C479.355 654.352 479.403 654.224 479.499 654.128C479.611 654.016 479.747 653.96 479.907 653.96H481.107C481.267 653.96 481.395 654.016 481.491 654.128C481.603 654.224 481.659 654.352 481.659 654.512V660.104C482.123 659.512 482.667 659.064 483.291 658.76C483.915 658.44 484.691 658.28 485.619 658.28C487.155 658.28 488.347 658.776 489.195 659.768C490.059 660.744 490.491 662.048 490.491 663.68V670.448C490.491 670.608 490.435 670.744 490.323 670.856C490.227 670.952 490.099 671 489.939 671H488.739C488.579 671 488.443 670.952 488.331 670.856C488.235 670.744 488.187 670.608 488.187 670.448V663.8C488.187 662.664 487.907 661.784 487.347 661.16C486.803 660.536 486.011 660.224 484.971 660.224C483.963 660.224 483.155 660.544 482.547 661.184C481.955 661.808 481.659 662.68 481.659 663.8V670.448C481.659 670.608 481.603 670.744 481.491 670.856C481.395 670.952 481.267 671 481.107 671H479.907ZM498.948 671.24C497.3 671.24 495.98 670.736 494.988 669.728C494.012 668.704 493.476 667.312 493.38 665.552L493.356 664.736L493.38 663.944C493.492 662.216 494.036 660.84 495.012 659.816C496.004 658.792 497.308 658.28 498.924 658.28C500.7 658.28 502.076 658.848 503.052 659.984C504.028 661.104 504.516 662.624 504.516 664.544V664.952C504.516 665.112 504.46 665.248 504.348 665.36C504.252 665.456 504.124 665.504 503.964 665.504H495.66V665.72C495.708 666.76 496.02 667.648 496.596 668.384C497.188 669.104 497.964 669.464 498.924 669.464C499.66 669.464 500.26 669.32 500.724 669.032C501.204 668.728 501.556 668.416 501.78 668.096C501.924 667.904 502.028 667.792 502.092 667.76C502.172 667.712 502.308 667.688 502.5 667.688H503.676C503.82 667.688 503.94 667.728 504.036 667.808C504.132 667.888 504.18 668 504.18 668.144C504.18 668.496 503.956 668.92 503.508 669.416C503.076 669.912 502.46 670.344 501.66 670.712C500.876 671.064 499.972 671.24 498.948 671.24ZM502.236 663.848V663.776C502.236 662.672 501.932 661.776 501.324 661.088C500.732 660.384 499.932 660.032 498.924 660.032C497.916 660.032 497.116 660.384 496.524 661.088C495.948 661.776 495.66 662.672 495.66 663.776V663.848H502.236ZM522.292 675.56C522.132 675.56 521.996 675.504 521.884 675.392C521.788 675.296 521.74 675.168 521.74 675.008V669.44C520.812 670.64 519.516 671.24 517.852 671.24C516.188 671.24 514.932 670.712 514.084 669.656C513.236 668.584 512.788 667.224 512.74 665.576L512.716 664.76L512.74 663.944C512.788 662.28 513.228 660.92 514.06 659.864C514.908 658.808 516.172 658.28 517.852 658.28C519.58 658.28 520.892 658.896 521.788 660.128V659.072C521.788 658.912 521.836 658.784 521.932 658.688C522.044 658.576 522.18 658.52 522.34 658.52H523.444C523.604 658.52 523.732 658.576 523.828 658.688C523.94 658.784 523.996 658.912 523.996 659.072V675.008C523.996 675.168 523.94 675.296 523.828 675.392C523.732 675.504 523.604 675.56 523.444 675.56H522.292ZM518.356 669.296C519.428 669.296 520.252 668.944 520.828 668.24C521.404 667.536 521.708 666.712 521.74 665.768C521.756 665.592 521.764 665.28 521.764 664.832C521.764 664.384 521.756 664.08 521.74 663.92C521.692 662.912 521.388 662.048 520.828 661.328C520.284 660.592 519.46 660.224 518.356 660.224C517.22 660.224 516.388 660.576 515.86 661.28C515.348 661.984 515.068 662.912 515.02 664.064L514.996 664.76C514.996 667.784 516.116 669.296 518.356 669.296ZM532.221 671.24C530.701 671.24 529.525 670.752 528.693 669.776C527.861 668.784 527.445 667.472 527.445 665.84V659.072C527.445 658.912 527.493 658.784 527.589 658.688C527.701 658.576 527.837 658.52 527.997 658.52H529.197C529.357 658.52 529.485 658.576 529.581 658.688C529.693 658.784 529.749 658.912 529.749 659.072V665.72C529.749 668.104 530.789 669.296 532.869 669.296C533.877 669.296 534.677 668.984 535.269 668.36C535.861 667.72 536.157 666.84 536.157 665.72V659.072C536.157 658.912 536.205 658.784 536.301 658.688C536.413 658.576 536.549 658.52 536.709 658.52H537.909C538.069 658.52 538.197 658.576 538.293 658.688C538.389 658.784 538.437 658.912 538.437 659.072V670.448C538.437 670.608 538.389 670.744 538.293 670.856C538.197 670.952 538.069 671 537.909 671H536.781C536.621 671 536.485 670.952 536.373 670.856C536.277 670.744 536.229 670.608 536.229 670.448V669.392C535.781 670 535.237 670.464 534.597 670.784C533.957 671.088 533.165 671.24 532.221 671.24ZM546.995 671.24C545.347 671.24 544.027 670.736 543.035 669.728C542.059 668.704 541.523 667.312 541.427 665.552L541.403 664.736L541.427 663.944C541.539 662.216 542.083 660.84 543.059 659.816C544.051 658.792 545.355 658.28 546.971 658.28C548.747 658.28 550.123 658.848 551.099 659.984C552.075 661.104 552.563 662.624 552.563 664.544V664.952C552.563 665.112 552.507 665.248 552.395 665.36C552.299 665.456 552.171 665.504 552.011 665.504H543.707V665.72C543.755 666.76 544.067 667.648 544.643 668.384C545.235 669.104 546.011 669.464 546.971 669.464C547.707 669.464 548.307 669.32 548.771 669.032C549.251 668.728 549.603 668.416 549.827 668.096C549.971 667.904 550.075 667.792 550.139 667.76C550.219 667.712 550.355 667.688 550.547 667.688H551.723C551.867 667.688 551.987 667.728 552.083 667.808C552.179 667.888 552.227 668 552.227 668.144C552.227 668.496 552.003 668.92 551.555 669.416C551.123 669.912 550.507 670.344 549.707 670.712C548.923 671.064 548.019 671.24 546.995 671.24ZM550.283 663.848V663.776C550.283 662.672 549.979 661.776 549.371 661.088C548.779 660.384 547.979 660.032 546.971 660.032C545.963 660.032 545.163 660.384 544.571 661.088C543.995 661.776 543.707 662.672 543.707 663.776V663.848H550.283ZM559.752 671.24C558.632 671.24 557.688 671.064 556.92 670.712C556.168 670.344 555.6 669.928 555.216 669.464C554.848 669 554.664 668.616 554.664 668.312C554.664 668.152 554.72 668.032 554.832 667.952C554.96 667.856 555.088 667.808 555.216 667.808H556.296C556.456 667.808 556.6 667.888 556.728 668.048C557.112 668.496 557.528 668.848 557.976 669.104C558.424 669.36 559.024 669.488 559.776 669.488C560.608 669.488 561.28 669.328 561.792 669.008C562.32 668.672 562.584 668.216 562.584 667.64C562.584 667.256 562.472 666.944 562.248 666.704C562.04 666.448 561.672 666.232 561.144 666.056C560.632 665.864 559.864 665.656 558.84 665.432C557.448 665.128 556.456 664.688 555.864 664.112C555.288 663.536 555 662.792 555 661.88C555 661.272 555.176 660.696 555.528 660.152C555.896 659.592 556.424 659.144 557.112 658.808C557.816 658.456 558.656 658.28 559.632 658.28C560.656 658.28 561.528 658.448 562.248 658.784C562.968 659.12 563.504 659.52 563.856 659.984C564.224 660.432 564.408 660.808 564.408 661.112C564.408 661.256 564.352 661.376 564.24 661.472C564.144 661.568 564.024 661.616 563.88 661.616H562.872C562.68 661.616 562.52 661.536 562.392 661.376C562.136 661.072 561.912 660.84 561.72 660.68C561.544 660.504 561.28 660.352 560.928 660.224C560.592 660.096 560.16 660.032 559.632 660.032C558.864 660.032 558.272 660.2 557.856 660.536C557.44 660.856 557.232 661.28 557.232 661.808C557.232 662.144 557.32 662.432 557.496 662.672C557.672 662.896 558.008 663.104 558.504 663.296C559.016 663.488 559.752 663.688 560.712 663.896C562.232 664.216 563.304 664.68 563.928 665.288C564.568 665.88 564.888 666.64 564.888 667.568C564.888 668.256 564.688 668.88 564.288 669.44C563.888 670 563.296 670.44 562.512 670.76C561.744 671.08 560.824 671.24 559.752 671.24ZM572.515 671C569.987 671 568.723 669.592 568.723 666.776V660.44H566.851C566.691 660.44 566.555 660.392 566.443 660.296C566.347 660.184 566.299 660.048 566.299 659.888V659.072C566.299 658.912 566.347 658.784 566.443 658.688C566.555 658.576 566.691 658.52 566.851 658.52H568.723V654.512C568.723 654.352 568.771 654.224 568.867 654.128C568.979 654.016 569.115 653.96 569.275 653.96H570.403C570.563 653.96 570.691 654.016 570.787 654.128C570.899 654.224 570.955 654.352 570.955 654.512V658.52H573.931C574.091 658.52 574.219 658.576 574.315 658.688C574.427 658.784 574.483 658.912 574.483 659.072V659.888C574.483 660.048 574.427 660.184 574.315 660.296C574.219 660.392 574.091 660.44 573.931 660.44H570.955V666.608C570.955 667.408 571.091 668.016 571.363 668.432C571.635 668.832 572.083 669.032 572.707 669.032H574.171C574.331 669.032 574.459 669.088 574.555 669.2C574.667 669.296 574.723 669.424 574.723 669.584V670.448C574.723 670.608 574.667 670.744 574.555 670.856C574.459 670.952 574.331 671 574.171 671H572.515ZM577.378 656.192C577.218 656.192 577.082 656.144 576.97 656.048C576.874 655.936 576.826 655.8 576.826 655.64V654.344C576.826 654.184 576.874 654.048 576.97 653.936C577.082 653.824 577.218 653.768 577.378 653.768H578.89C579.05 653.768 579.186 653.824 579.298 653.936C579.41 654.048 579.466 654.184 579.466 654.344V655.64C579.466 655.8 579.41 655.936 579.298 656.048C579.186 656.144 579.05 656.192 578.89 656.192H577.378ZM577.57 671C577.41 671 577.274 670.952 577.162 670.856C577.066 670.744 577.018 670.608 577.018 670.448V659.072C577.018 658.912 577.066 658.784 577.162 658.688C577.274 658.576 577.41 658.52 577.57 658.52H578.722C578.882 658.52 579.01 658.576 579.106 658.688C579.218 658.784 579.274 658.912 579.274 659.072V670.448C579.274 670.608 579.218 670.744 579.106 670.856C579.01 670.952 578.882 671 578.722 671H577.57ZM587.943 671.24C586.183 671.24 584.815 670.744 583.839 669.752C582.879 668.76 582.367 667.44 582.303 665.792L582.279 664.76L582.303 663.728C582.367 662.096 582.887 660.784 583.863 659.792C584.839 658.784 586.199 658.28 587.943 658.28C589.687 658.28 591.047 658.784 592.023 659.792C592.999 660.784 593.519 662.096 593.583 663.728C593.599 663.904 593.607 664.248 593.607 664.76C593.607 665.272 593.599 665.616 593.583 665.792C593.519 667.44 592.999 668.76 592.023 669.752C591.063 670.744 589.703 671.24 587.943 671.24ZM587.943 669.392C588.951 669.392 589.743 669.072 590.319 668.432C590.911 667.792 591.231 666.872 591.279 665.672C591.295 665.512 591.303 665.208 591.303 664.76C591.303 664.312 591.295 664.008 591.279 663.848C591.231 662.648 590.911 661.728 590.319 661.088C589.743 660.448 588.951 660.128 587.943 660.128C586.935 660.128 586.135 660.448 585.543 661.088C584.951 661.728 584.639 662.648 584.607 663.848L584.583 664.76L584.607 665.672C584.639 666.872 584.951 667.792 585.543 668.432C586.135 669.072 586.935 669.392 587.943 669.392ZM597.164 671C597.004 671 596.868 670.952 596.756 670.856C596.66 670.744 596.612 670.608 596.612 670.448V659.072C596.612 658.912 596.66 658.784 596.756 658.688C596.868 658.576 597.004 658.52 597.164 658.52H598.292C598.452 658.52 598.58 658.576 598.676 658.688C598.788 658.784 598.844 658.912 598.844 659.072V660.128C599.308 659.536 599.852 659.08 600.476 658.76C601.116 658.44 601.908 658.28 602.852 658.28C604.388 658.28 605.58 658.776 606.428 659.768C607.292 660.744 607.724 662.048 607.724 663.68V670.448C607.724 670.608 607.668 670.744 607.556 670.856C607.46 670.952 607.332 671 607.172 671H605.972C605.812 671 605.676 670.952 605.564 670.856C605.468 670.744 605.42 670.608 605.42 670.448V663.8C605.42 662.664 605.14 661.784 604.58 661.16C604.036 660.536 603.244 660.224 602.204 660.224C601.196 660.224 600.396 660.544 599.804 661.184C599.212 661.808 598.916 662.68 598.916 663.8V670.448C598.916 670.608 598.86 670.744 598.748 670.856C598.652 670.952 598.524 671 598.364 671H597.164Z" fill="#FAFAFA"/>
<path d="M245 359L245 736" stroke="#40A9FF" stroke-width="2"/>
<path d="M245 535H280.5" stroke="#40A9FF" stroke-width="2"/>
<path d="M245 599H280.5" stroke="#40A9FF" stroke-width="2"/>
<path d="M245 663H280.5" stroke="#40A9FF" stroke-width="2"/>
<path d="M263.6 468.96C254.832 468.96 247.984 466.688 243.056 462.144C238.192 457.6 235.6 451.264 235.28 443.136C235.216 441.28 235.184 438.304 235.184 434.208C235.184 430.112 235.216 427.136 235.28 425.28C235.6 417.344 238.224 411.136 243.152 406.656C248.144 402.112 254.96 399.84 263.6 399.84C269.488 399.84 274.544 400.832 278.768 402.816C282.992 404.8 286.192 407.296 288.368 410.304C290.544 413.248 291.696 416.16 291.824 419.04V419.232C291.824 419.744 291.632 420.192 291.248 420.576C290.864 420.896 290.384 421.056 289.808 421.056H279.92C279.28 421.056 278.8 420.96 278.48 420.768C278.16 420.512 277.872 420.096 277.616 419.52C276.72 417.152 275.152 415.136 272.912 413.472C270.672 411.744 267.568 410.88 263.6 410.88C259.12 410.88 255.6 412.096 253.04 414.528C250.544 416.96 249.2 420.704 249.008 425.76C248.944 427.616 248.912 430.432 248.912 434.208C248.912 437.92 248.944 440.736 249.008 442.656C249.392 452.832 254.32 457.92 263.792 457.92C268.336 457.92 271.984 456.704 274.736 454.272C277.488 451.776 278.864 448.096 278.864 443.232V440.256H267.152C266.448 440.256 265.872 440.032 265.424 439.584C265.04 439.136 264.848 438.56 264.848 437.856V432.768C264.848 432.064 265.04 431.488 265.424 431.04C265.872 430.592 266.448 430.368 267.152 430.368H290.096C290.8 430.368 291.344 430.592 291.728 431.04C292.176 431.488 292.4 432.064 292.4 432.768V442.848C292.4 448.16 291.216 452.8 288.848 456.768C286.544 460.672 283.216 463.68 278.864 465.792C274.512 467.904 269.424 468.96 263.6 468.96ZM325.059 468.96C317.955 468.96 312.291 466.912 308.067 462.816C303.907 458.656 301.699 452.832 301.443 445.344L301.347 442.944L301.443 440.544C301.763 433.248 304.003 427.52 308.163 423.36C312.387 419.2 318.019 417.12 325.059 417.12C332.611 417.12 338.435 419.424 342.531 424.032C346.691 428.64 348.771 434.784 348.771 442.464V444.48C348.771 445.12 348.547 445.664 348.099 446.112C347.651 446.56 347.075 446.784 346.371 446.784H314.499V447.552C314.627 451.072 315.587 454.048 317.379 456.48C319.235 458.848 321.763 460.032 324.963 460.032C328.739 460.032 331.779 458.56 334.083 455.616C334.659 454.912 335.107 454.464 335.427 454.272C335.811 454.08 336.355 453.984 337.059 453.984H345.315C345.891 453.984 346.371 454.176 346.755 454.56C347.203 454.88 347.427 455.296 347.427 455.808C347.427 457.344 346.499 459.168 344.643 461.28C342.851 463.328 340.259 465.12 336.867 466.656C333.475 468.192 329.539 468.96 325.059 468.96ZM335.715 438.72V438.432C335.715 434.656 334.755 431.616 332.835 429.312C330.979 427.008 328.387 425.856 325.059 425.856C321.731 425.856 319.139 427.008 317.283 429.312C315.427 431.616 314.499 434.656 314.499 438.432V438.72H335.715ZM381.334 468C375.51 468 371.126 466.496 368.182 463.488C365.302 460.416 363.862 455.936 363.862 450.048V428.256H356.278C355.638 428.256 355.094 428.032 354.646 427.584C354.198 427.072 353.974 426.496 353.974 425.856V420.384C353.974 419.744 354.198 419.2 354.646 418.752C355.094 418.304 355.638 418.08 356.278 418.08H363.862V402.144C363.862 401.44 364.086 400.896 364.534 400.512C364.982 400.064 365.526 399.84 366.166 399.84H373.942C374.646 399.84 375.19 400.064 375.574 400.512C376.022 400.896 376.246 401.44 376.246 402.144V418.08H388.246C388.95 418.08 389.494 418.304 389.878 418.752C390.326 419.136 390.55 419.68 390.55 420.384V425.856C390.55 426.56 390.326 427.136 389.878 427.584C389.43 428.032 388.886 428.256 388.246 428.256H376.246V449.088C376.246 451.84 376.726 453.92 377.686 455.328C378.646 456.736 380.246 457.44 382.486 457.44H389.11C389.75 457.44 390.294 457.664 390.742 458.112C391.19 458.56 391.414 459.104 391.414 459.744V465.696C391.414 466.336 391.19 466.88 390.742 467.328C390.358 467.776 389.814 468 389.11 468H381.334ZM442.552 468C436.728 468 432.344 466.496 429.4 463.488C426.52 460.416 425.08 455.936 425.08 450.048V428.256H417.496C416.856 428.256 416.312 428.032 415.864 427.584C415.416 427.072 415.192 426.496 415.192 425.856V420.384C415.192 419.744 415.416 419.2 415.864 418.752C416.312 418.304 416.856 418.08 417.496 418.08H425.08V402.144C425.08 401.44 425.304 400.896 425.752 400.512C426.2 400.064 426.744 399.84 427.384 399.84H435.16C435.864 399.84 436.408 400.064 436.792 400.512C437.24 400.896 437.464 401.44 437.464 402.144V418.08H449.464C450.168 418.08 450.712 418.304 451.096 418.752C451.544 419.136 451.768 419.68 451.768 420.384V425.856C451.768 426.56 451.544 427.136 451.096 427.584C450.648 428.032 450.104 428.256 449.464 428.256H437.464V449.088C437.464 451.84 437.944 453.92 438.904 455.328C439.864 456.736 441.464 457.44 443.704 457.44H450.328C450.968 457.44 451.512 457.664 451.96 458.112C452.408 458.56 452.632 459.104 452.632 459.744V465.696C452.632 466.336 452.408 466.88 451.96 467.328C451.576 467.776 451.032 468 450.328 468H442.552ZM483.229 468.96C475.741 468.96 469.949 467.04 465.853 463.2C461.757 459.296 459.549 453.984 459.229 447.264L459.133 443.04L459.229 438.816C459.549 432.16 461.789 426.88 465.949 422.976C470.109 419.072 475.869 417.12 483.229 417.12C490.589 417.12 496.349 419.072 500.509 422.976C504.669 426.88 506.909 432.16 507.229 438.816C507.293 439.584 507.325 440.992 507.325 443.04C507.325 445.088 507.293 446.496 507.229 447.264C506.909 453.984 504.701 459.296 500.605 463.2C496.509 467.04 490.717 468.96 483.229 468.96ZM483.229 459.456C486.621 459.456 489.245 458.4 491.101 456.288C492.957 454.112 493.981 450.944 494.173 446.784C494.237 446.144 494.269 444.896 494.269 443.04C494.269 441.184 494.237 439.936 494.173 439.296C493.981 435.136 492.957 432 491.101 429.888C489.245 427.712 486.621 426.624 483.229 426.624C479.837 426.624 477.213 427.712 475.357 429.888C473.501 432 472.477 435.136 472.285 439.296L472.189 443.04L472.285 446.784C472.477 450.944 473.501 454.112 475.357 456.288C477.213 458.4 479.837 459.456 483.229 459.456ZM551.374 468C550.542 468 549.87 467.808 549.358 467.424C548.91 466.976 548.526 466.368 548.206 465.6L534.478 421.056C534.414 420.864 534.382 420.576 534.382 420.192C534.382 419.616 534.574 419.136 534.958 418.752C535.406 418.304 535.886 418.08 536.398 418.08H543.502C544.206 418.08 544.782 418.272 545.23 418.656C545.678 419.04 545.966 419.456 546.094 419.904L555.502 451.68L565.486 420.192C565.678 419.616 565.998 419.136 566.446 418.752C566.958 418.304 567.598 418.08 568.366 418.08H573.166C573.934 418.08 574.542 418.304 574.99 418.752C575.502 419.136 575.854 419.616 576.046 420.192L586.03 451.68L595.438 419.904C595.502 419.456 595.758 419.04 596.206 418.656C596.718 418.272 597.294 418.08 597.934 418.08H605.038C605.614 418.08 606.094 418.304 606.478 418.752C606.926 419.136 607.15 419.616 607.15 420.192L606.958 421.056L593.23 465.6C592.974 466.368 592.59 466.976 592.078 467.424C591.63 467.808 590.99 468 590.158 468H583.918C582.254 468 581.198 467.2 580.75 465.6L570.766 435.264L560.782 465.6C560.27 467.2 559.182 468 557.518 468H551.374ZM637.166 468.96C629.678 468.96 623.886 467.04 619.79 463.2C615.694 459.296 613.486 453.984 613.166 447.264L613.07 443.04L613.166 438.816C613.486 432.16 615.726 426.88 619.886 422.976C624.046 419.072 629.806 417.12 637.166 417.12C644.526 417.12 650.286 419.072 654.446 422.976C658.606 426.88 660.846 432.16 661.166 438.816C661.23 439.584 661.262 440.992 661.262 443.04C661.262 445.088 661.23 446.496 661.166 447.264C660.846 453.984 658.638 459.296 654.542 463.2C650.446 467.04 644.654 468.96 637.166 468.96ZM637.166 459.456C640.558 459.456 643.182 458.4 645.038 456.288C646.894 454.112 647.918 450.944 648.11 446.784C648.174 446.144 648.206 444.896 648.206 443.04C648.206 441.184 648.174 439.936 648.11 439.296C647.918 435.136 646.894 432 645.038 429.888C643.182 427.712 640.558 426.624 637.166 426.624C633.774 426.624 631.15 427.712 629.294 429.888C627.438 432 626.414 435.136 626.222 439.296L626.126 443.04L626.222 446.784C626.414 450.944 627.438 454.112 629.294 456.288C631.15 458.4 633.774 459.456 637.166 459.456ZM674.203 468C673.563 468 673.019 467.776 672.571 467.328C672.123 466.88 671.898 466.336 671.898 465.696V420.48C671.898 419.84 672.123 419.296 672.571 418.848C673.019 418.336 673.563 418.08 674.203 418.08H681.979C682.683 418.08 683.259 418.304 683.707 418.752C684.155 419.2 684.379 419.776 684.379 420.48V424.416C685.915 422.368 687.835 420.8 690.139 419.712C692.507 418.624 695.195 418.08 698.203 418.08H702.139C702.843 418.08 703.387 418.304 703.771 418.752C704.219 419.136 704.443 419.68 704.443 420.384V427.296C704.443 427.936 704.219 428.48 703.771 428.928C703.387 429.376 702.843 429.6 702.139 429.6H694.651C691.643 429.6 689.275 430.464 687.547 432.192C685.819 433.92 684.955 436.288 684.955 439.296V465.696C684.955 466.336 684.731 466.88 684.283 467.328C683.835 467.776 683.259 468 682.555 468H674.203ZM714.33 468C713.69 468 713.146 467.776 712.698 467.328C712.25 466.88 712.026 466.336 712.026 465.696V402.144C712.026 401.44 712.25 400.896 712.698 400.512C713.146 400.064 713.69 399.84 714.33 399.84H722.106C722.81 399.84 723.354 400.064 723.738 400.512C724.186 400.896 724.41 401.44 724.41 402.144V434.976L740.538 419.712C740.73 419.584 741.05 419.328 741.498 418.944C741.882 418.624 742.266 418.4 742.65 418.272C743.034 418.144 743.514 418.08 744.09 418.08H753.018C753.658 418.08 754.17 418.272 754.554 418.656C754.938 419.04 755.13 419.552 755.13 420.192C755.13 420.768 754.81 421.344 754.17 421.92L734.394 440.448L756.57 464.256C757.21 464.896 757.53 465.44 757.53 465.888C757.53 466.528 757.306 467.04 756.858 467.424C756.474 467.808 755.994 468 755.418 468H746.298C745.402 468 744.73 467.904 744.282 467.712C743.898 467.456 743.386 467.008 742.746 466.368L724.41 447.072V465.696C724.41 466.336 724.186 466.88 723.738 467.328C723.354 467.776 722.81 468 722.106 468H714.33ZM766.439 468C765.799 468 765.255 467.776 764.807 467.328C764.359 466.88 764.135 466.336 764.135 465.696V456.192C764.135 455.552 764.359 455.008 764.807 454.56C765.255 454.048 765.799 453.792 766.439 453.792H776.039C776.679 453.792 777.223 454.048 777.671 454.56C778.119 455.008 778.343 455.552 778.343 456.192V465.696C778.343 466.336 778.119 466.88 777.671 467.328C777.223 467.776 776.679 468 776.039 468H766.439Z" fill="white"/>
<rect x="212" y="287" width="64" height="64" rx="32" fill="#40A9FF"/>
<path d="M257.75 327.75C257.75 323.391 255.195 319.625 251.5 317.871V311.395C251.5 310.805 251.293 310.234 250.91 309.785L244.957 302.727C244.707 302.43 244.352 302.281 244 302.281C243.648 302.281 243.293 302.43 243.043 302.727L237.09 309.785C236.71 310.235 236.501 310.805 236.5 311.395V317.871C232.805 319.625 230.25 323.391 230.25 327.75H236.363C236.273 328.031 236.227 328.336 236.227 328.68C236.227 329.543 236.523 330.387 237.062 331.055C237.503 331.601 238.085 332.015 238.746 332.25C239.648 334.359 241.699 335.719 244 335.719C245.137 335.719 246.238 335.383 247.18 334.75C248.102 334.133 248.816 333.27 249.25 332.25C249.911 332.016 250.493 331.604 250.934 331.059C251.473 330.385 251.768 329.547 251.77 328.684C251.77 328.355 251.727 328.043 251.648 327.754L257.75 327.75ZM244 312.75C244.491 312.76 244.958 312.962 245.301 313.313C245.645 313.663 245.837 314.134 245.837 314.625C245.837 315.116 245.645 315.587 245.301 315.937C244.958 316.288 244.491 316.49 244 316.5C243.509 316.49 243.042 316.288 242.699 315.937C242.355 315.587 242.163 315.116 242.163 314.625C242.163 314.134 242.355 313.663 242.699 313.313C243.042 312.962 243.509 312.76 244 312.75ZM248.535 329.633C248.332 329.75 248.098 329.797 247.867 329.766L247.105 329.672L246.996 330.43C246.785 331.91 245.496 333.027 244 333.027C242.504 333.027 241.215 331.91 241.004 330.43L240.895 329.668L240.133 329.766C239.901 329.793 239.667 329.745 239.465 329.629C239.125 329.434 238.914 329.07 238.914 328.676C238.914 328.262 239.145 327.918 239.484 327.746H248.52C248.863 327.922 249.09 328.266 249.09 328.676C249.086 329.074 248.875 329.441 248.535 329.633Z" fill="white"/>
</g>
<defs>
<clipPath id="clip0">
<rect width="1000" height="1024" fill="white"/>
</clipPath>
</defs>
</svg>
