<svg width="147" height="36" viewBox="0 0 147 36" fill="none" xmlns="http://www.w3.org/2000/svg">
<path d="M9.2002 21.8461C8.86973 22.3593 8.60254 22.9113 8.40918 23.4843H11.3904V19.6418C10.5186 20.2113 9.77324 20.9601 9.2002 21.8461V21.8461ZM24.6092 19.6418V23.4843H27.5904C27.3971 22.9113 27.1299 22.3593 26.7994 21.8461C26.2326 20.9653 25.4863 20.2142 24.6092 19.6418V19.6418ZM22.3592 11.2078L17.9998 6.03979L13.6404 11.2078V23.4843H22.3592V11.2078V11.2078ZM17.9998 15.75C17.5582 15.7409 17.1378 15.5592 16.8286 15.2437C16.5195 14.9282 16.3464 14.5041 16.3464 14.0625C16.3464 13.6208 16.5195 13.1967 16.8286 12.8812C17.1378 12.5657 17.5582 12.384 17.9998 12.375C18.4414 12.384 18.8619 12.5657 19.171 12.8812C19.4801 13.1967 19.6532 13.6208 19.6532 14.0625C19.6532 14.5041 19.4801 14.9282 19.171 15.2437C18.8619 15.5592 18.4414 15.7409 17.9998 15.75Z" fill="#E6F7FF"/>
<path d="M30.375 25.875C30.375 21.9516 28.0758 18.5625 24.75 16.984V11.1551C24.75 10.6242 24.5637 10.1109 24.2191 9.70664L18.8613 3.35391C18.6363 3.08672 18.3164 2.95312 18 2.95312C17.6836 2.95312 17.3637 3.08672 17.1387 3.35391L11.7809 9.70664C11.4387 10.1118 11.2506 10.6248 11.25 11.1551V16.984C7.92422 18.5625 5.625 21.9516 5.625 25.875H11.127C11.0461 26.1281 11.0039 26.4023 11.0039 26.7117C11.0039 27.4887 11.2711 28.248 11.7562 28.8492C12.1523 29.3409 12.6767 29.7133 13.2715 29.925C14.0836 31.8234 15.9293 33.0469 18 33.0469C19.023 33.0469 20.0145 32.7445 20.8617 32.175C21.6914 31.6195 22.3348 30.8426 22.725 29.925C23.3195 29.7146 23.844 29.3434 24.2402 28.8527C24.726 28.2461 24.9913 27.4924 24.9926 26.7152C24.9926 26.4199 24.9539 26.1387 24.8836 25.8785L30.375 25.875ZM11.3906 23.4844H8.40937C8.60273 22.9113 8.86992 22.3594 9.20039 21.8461C9.77344 20.9602 10.5188 20.2113 11.3906 19.6418V23.4844ZM13.6406 11.2078L18 6.03984L22.3594 11.2078V23.4844H13.6406V11.2078ZM22.0816 27.5695C21.8988 27.675 21.6879 27.7172 21.4805 27.6891L20.7949 27.6047L20.6965 28.2867C20.5066 29.6191 19.3465 30.6246 18 30.6246C16.6535 30.6246 15.4934 29.6191 15.3035 28.2867L15.2051 27.6012L14.5195 27.6891C14.3111 27.7139 14.1003 27.6707 13.9184 27.566C13.6125 27.3902 13.4227 27.0633 13.4227 26.7082C13.4227 26.3355 13.6301 26.0262 13.9359 25.8715H22.0676C22.377 26.0297 22.5809 26.3391 22.5809 26.7082C22.5773 27.0668 22.3875 27.3973 22.0816 27.5695ZM24.6094 23.4844V19.6418C25.4865 20.2142 26.2328 20.9653 26.7996 21.8461C27.1301 22.3594 27.3973 22.9113 27.5906 23.4844H24.6094Z" fill="#1890FF"/>
<path d="M16.3125 14.0625C16.3125 14.5101 16.4903 14.9393 16.8068 15.2557C17.1232 15.5722 17.5524 15.75 18 15.75C18.4476 15.75 18.8768 15.5722 19.1932 15.2557C19.5097 14.9393 19.6875 14.5101 19.6875 14.0625C19.6875 13.6149 19.5097 13.1857 19.1932 12.8693C18.8768 12.5528 18.4476 12.375 18 12.375C17.5524 12.375 17.1232 12.5528 16.8068 12.8693C16.4903 13.1857 16.3125 13.6149 16.3125 14.0625Z" fill="#1890FF"/>
<path d="M46.64 26C46.48 26 46.344 25.952 46.232 25.856C46.136 25.744 46.088 25.608 46.088 25.448V9.776C46.088 9.6 46.136 9.464 46.232 9.368C46.344 9.256 46.48 9.2 46.64 9.2H52.736C54.544 9.2 55.968 9.64 57.008 10.52C58.048 11.4 58.568 12.672 58.568 14.336C58.568 16 58.048 17.272 57.008 18.152C55.984 19.016 54.56 19.448 52.736 19.448H48.488V25.448C48.488 25.608 48.432 25.744 48.32 25.856C48.208 25.952 48.072 26 47.912 26H46.64ZM52.616 17.432C53.784 17.432 54.664 17.168 55.256 16.64C55.864 16.112 56.168 15.344 56.168 14.336C56.168 13.328 55.872 12.56 55.28 12.032C54.688 11.488 53.8 11.216 52.616 11.216H48.464V17.432H52.616ZM66.0024 26.24C64.3544 26.24 63.0344 25.736 62.0424 24.728C61.0664 23.704 60.5304 22.312 60.4344 20.552L60.4104 19.736L60.4344 18.944C60.5464 17.216 61.0904 15.84 62.0664 14.816C63.0584 13.792 64.3624 13.28 65.9784 13.28C67.7544 13.28 69.1304 13.848 70.1064 14.984C71.0824 16.104 71.5704 17.624 71.5704 19.544V19.952C71.5704 20.112 71.5144 20.248 71.4024 20.36C71.3064 20.456 71.1784 20.504 71.0184 20.504H62.7144V20.72C62.7624 21.76 63.0744 22.648 63.6504 23.384C64.2424 24.104 65.0184 24.464 65.9784 24.464C66.7144 24.464 67.3144 24.32 67.7784 24.032C68.2584 23.728 68.6104 23.416 68.8344 23.096C68.9784 22.904 69.0824 22.792 69.1464 22.76C69.2264 22.712 69.3624 22.688 69.5544 22.688H70.7304C70.8744 22.688 70.9944 22.728 71.0904 22.808C71.1864 22.888 71.2344 23 71.2344 23.144C71.2344 23.496 71.0104 23.92 70.5624 24.416C70.1304 24.912 69.5144 25.344 68.7144 25.712C67.9304 26.064 67.0264 26.24 66.0024 26.24ZM69.2904 18.848V18.776C69.2904 17.672 68.9864 16.776 68.3784 16.088C67.7864 15.384 66.9864 15.032 65.9784 15.032C64.9704 15.032 64.1704 15.384 63.5784 16.088C63.0024 16.776 62.7144 17.672 62.7144 18.776V18.848H69.2904ZM79.4321 26.24C77.7841 26.24 76.4641 25.736 75.4721 24.728C74.4961 23.704 73.9601 22.312 73.8641 20.552L73.8401 19.736L73.8641 18.944C73.9761 17.216 74.5201 15.84 75.4961 14.816C76.4881 13.792 77.7921 13.28 79.4081 13.28C81.1841 13.28 82.5601 13.848 83.5361 14.984C84.5121 16.104 85.0001 17.624 85.0001 19.544V19.952C85.0001 20.112 84.9441 20.248 84.8321 20.36C84.7361 20.456 84.6081 20.504 84.4481 20.504H76.1441V20.72C76.1921 21.76 76.5041 22.648 77.0801 23.384C77.6721 24.104 78.4481 24.464 79.4081 24.464C80.1441 24.464 80.7441 24.32 81.2081 24.032C81.6881 23.728 82.0401 23.416 82.2641 23.096C82.4081 22.904 82.5121 22.792 82.5761 22.76C82.6561 22.712 82.7921 22.688 82.9841 22.688H84.1601C84.3041 22.688 84.4241 22.728 84.5201 22.808C84.6161 22.888 84.6641 23 84.6641 23.144C84.6641 23.496 84.4401 23.92 83.9921 24.416C83.5601 24.912 82.9441 25.344 82.1441 25.712C81.3601 26.064 80.4561 26.24 79.4321 26.24ZM82.7201 18.848V18.776C82.7201 17.672 82.4161 16.776 81.8081 16.088C81.2161 15.384 80.4161 15.032 79.4081 15.032C78.4001 15.032 77.6001 15.384 77.0081 16.088C76.4321 16.776 76.1441 17.672 76.1441 18.776V18.848H82.7201ZM88.4218 26C88.2618 26 88.1258 25.952 88.0138 25.856C87.9178 25.744 87.8698 25.608 87.8698 25.448V14.096C87.8698 13.936 87.9178 13.8 88.0138 13.688C88.1258 13.576 88.2618 13.52 88.4218 13.52H89.5258C89.6858 13.52 89.8218 13.576 89.9338 13.688C90.0458 13.8 90.1018 13.936 90.1018 14.096V15.152C90.7578 14.064 91.8778 13.52 93.4618 13.52H94.3978C94.5578 13.52 94.6858 13.576 94.7818 13.688C94.8938 13.784 94.9498 13.912 94.9498 14.072V15.056C94.9498 15.216 94.8938 15.344 94.7818 15.44C94.6858 15.536 94.5578 15.584 94.3978 15.584H92.9578C92.0938 15.584 91.4138 15.84 90.9178 16.352C90.4218 16.848 90.1738 17.528 90.1738 18.392V25.448C90.1738 25.608 90.1178 25.744 90.0058 25.856C89.8938 25.952 89.7578 26 89.5978 26H88.4218ZM97.5629 30.56C97.4029 30.56 97.2669 30.504 97.1549 30.392C97.0589 30.296 97.0109 30.168 97.0109 30.008V14.072C97.0109 13.912 97.0589 13.784 97.1549 13.688C97.2669 13.576 97.4029 13.52 97.5629 13.52H98.6669C98.8269 13.52 98.9549 13.576 99.0509 13.688C99.1629 13.784 99.2189 13.912 99.2189 14.072V15.128C100.115 13.896 101.427 13.28 103.155 13.28C104.835 13.28 106.091 13.808 106.923 14.864C107.771 15.92 108.227 17.28 108.291 18.944C108.307 19.12 108.315 19.392 108.315 19.76C108.315 20.128 108.307 20.4 108.291 20.576C108.227 22.224 107.771 23.584 106.923 24.656C106.075 25.712 104.819 26.24 103.155 26.24C101.491 26.24 100.195 25.64 99.2669 24.44V30.008C99.2669 30.168 99.2189 30.296 99.1229 30.392C99.0269 30.504 98.8989 30.56 98.7389 30.56H97.5629ZM102.651 24.296C103.787 24.296 104.611 23.944 105.123 23.24C105.651 22.536 105.939 21.608 105.987 20.456C106.003 20.296 106.011 20.064 106.011 19.76C106.011 16.736 104.891 15.224 102.651 15.224C101.547 15.224 100.715 15.592 100.155 16.328C99.6109 17.048 99.3149 17.912 99.2669 18.92L99.2429 19.832L99.2669 20.768C99.2989 21.712 99.6029 22.536 100.179 23.24C100.755 23.944 101.579 24.296 102.651 24.296ZM111.836 26C111.676 26 111.54 25.952 111.428 25.856C111.332 25.744 111.284 25.608 111.284 25.448V14.096C111.284 13.936 111.332 13.8 111.428 13.688C111.54 13.576 111.676 13.52 111.836 13.52H112.94C113.1 13.52 113.236 13.576 113.348 13.688C113.46 13.8 113.516 13.936 113.516 14.096V15.152C114.172 14.064 115.292 13.52 116.876 13.52H117.812C117.972 13.52 118.1 13.576 118.196 13.688C118.308 13.784 118.364 13.912 118.364 14.072V15.056C118.364 15.216 118.308 15.344 118.196 15.44C118.1 15.536 117.972 15.584 117.812 15.584H116.372C115.508 15.584 114.828 15.84 114.332 16.352C113.836 16.848 113.588 17.528 113.588 18.392V25.448C113.588 25.608 113.532 25.744 113.42 25.856C113.308 25.952 113.172 26 113.012 26H111.836ZM125.159 26.24C123.511 26.24 122.191 25.736 121.199 24.728C120.223 23.704 119.687 22.312 119.591 20.552L119.567 19.736L119.591 18.944C119.703 17.216 120.247 15.84 121.223 14.816C122.215 13.792 123.519 13.28 125.135 13.28C126.911 13.28 128.287 13.848 129.263 14.984C130.239 16.104 130.727 17.624 130.727 19.544V19.952C130.727 20.112 130.671 20.248 130.559 20.36C130.463 20.456 130.335 20.504 130.175 20.504H121.871V20.72C121.919 21.76 122.231 22.648 122.807 23.384C123.399 24.104 124.175 24.464 125.135 24.464C125.871 24.464 126.471 24.32 126.935 24.032C127.415 23.728 127.767 23.416 127.991 23.096C128.135 22.904 128.239 22.792 128.303 22.76C128.383 22.712 128.519 22.688 128.711 22.688H129.887C130.031 22.688 130.151 22.728 130.247 22.808C130.343 22.888 130.391 23 130.391 23.144C130.391 23.496 130.167 23.92 129.719 24.416C129.287 24.912 128.671 25.344 127.871 25.712C127.087 26.064 126.183 26.24 125.159 26.24ZM128.447 18.848V18.776C128.447 17.672 128.143 16.776 127.535 16.088C126.943 15.384 126.143 15.032 125.135 15.032C124.127 15.032 123.327 15.384 122.735 16.088C122.159 16.776 121.871 17.672 121.871 18.776V18.848H128.447ZM134.172 30.56C134.012 30.56 133.876 30.504 133.764 30.392C133.668 30.296 133.62 30.168 133.62 30.008V14.072C133.62 13.912 133.668 13.784 133.764 13.688C133.876 13.576 134.012 13.52 134.172 13.52H135.276C135.436 13.52 135.564 13.576 135.66 13.688C135.772 13.784 135.828 13.912 135.828 14.072V15.128C136.724 13.896 138.036 13.28 139.764 13.28C141.444 13.28 142.7 13.808 143.532 14.864C144.38 15.92 144.836 17.28 144.9 18.944C144.916 19.12 144.924 19.392 144.924 19.76C144.924 20.128 144.916 20.4 144.9 20.576C144.836 22.224 144.38 23.584 143.532 24.656C142.684 25.712 141.428 26.24 139.764 26.24C138.1 26.24 136.804 25.64 135.876 24.44V30.008C135.876 30.168 135.828 30.296 135.732 30.392C135.636 30.504 135.508 30.56 135.348 30.56H134.172ZM139.26 24.296C140.396 24.296 141.22 23.944 141.732 23.24C142.26 22.536 142.548 21.608 142.596 20.456C142.612 20.296 142.62 20.064 142.62 19.76C142.62 16.736 141.5 15.224 139.26 15.224C138.156 15.224 137.324 15.592 136.764 16.328C136.22 17.048 135.924 17.912 135.876 18.92L135.852 19.832L135.876 20.768C135.908 21.712 136.212 22.536 136.788 23.24C137.364 23.944 138.188 24.296 139.26 24.296Z" fill="#595959"/>
</svg>
